<svg height="512" viewBox="0 0 64 64" width="512" xmlns="http://www.w3.org/2000/svg"><path d="M25 25h14c1.654 0 3-1.346 3-3v-2a1 1 0 0 0-1-1H23a1 1 0 0 0-1 1v2c0 1.654 1.346 3 3 3zm-1-4h16v1c0 .552-.449 1-1 1H25c-.551 0-1-.448-1-1zM23 15h18a1 1 0 0 0 1-1c0-3.859-3.14-7-7-7h-6c-3.86 0-7 3.141-7 7a1 1 0 0 0 1 1zm6-6h6a5.008 5.008 0 0 1 4.899 4H24.101A5.008 5.008 0 0 1 29 9zM24 16h16v2H24z"/><path d="M27 10h2v2h-2zM31 10h2v2h-2zM35 10h2v2h-2z"/><path d="M62 19H46.698c.197-.97.302-1.973.302-3 0-8.271-6.729-15-15-15S17 7.729 17 16c0 1.027.105 2.03.302 3H2a1 1 0 0 0-1 1v8a1 1 0 0 0 1 1h3v33a1 1 0 0 0 1 1h52a1 1 0 0 0 1-1V29h3a1 1 0 0 0 1-1v-8a1 1 0 0 0-1-1zM32 3c7.168 0 13 5.832 13 13s-5.832 13-13 13-13-5.832-13-13S24.832 3 32 3zM3 21h14.875a15.019 15.019 0 0 0 3.961 6H3zm36 40h-6V47h6zm-8 0h-6V47h6zm26 0H41V46a1 1 0 0 0-1-1H24a1 1 0 0 0-1 1v15H7V29h17.549c2.198 1.265 4.738 2 7.451 2s5.253-.735 7.451-2H57zm4-34H42.164a15.008 15.008 0 0 0 3.961-6H61z"/><path d="M34 53h2v2h-2zM28 53h2v2h-2zM44 59h10a1 1 0 0 0 1-1V32a1 1 0 0 0-1-1H44a1 1 0 0 0-1 1v26a1 1 0 0 0 1 1zm1-26h8v24h-8zM20 31H10a1 1 0 0 0-1 1v26a1 1 0 0 0 1 1h10a1 1 0 0 0 1-1V32a1 1 0 0 0-1-1zm-1 26h-8V33h8zM24 33a1 1 0 0 0-1 1v8a1 1 0 0 0 1 1h16a1 1 0 0 0 1-1v-8a1 1 0 0 0-1-1zm15 8H25v-6h14z"/><path d="M12.197 43.408l3-4 1.6 1.2-3 4zM12.197 49.409l3-4 1.6 1.2-3 4zM46.203 43.412l3-4 1.6 1.2-3 4zM46.202 49.413l3-4 1.6 1.2-3 4z"/></svg>