<svg width="61" height="93" fill="none" xmlns="http://www.w3.org/2000/svg"><g clip-path="url(#clip0)"><path d="M52.783 29.129a54.294 54.294 0 00-9.651-25.92c-1.77-2.587-5.543.175-3.7 2.707a49.56 49.56 0 018.812 23.666c1.693 16.957-5.397 33.51-18.65 43.737l-6.662-9.439a2.109 2.109 0 00-3.684.4L8.76 89.163c-.634 1.504.535 3.16 2.137 3.028l26.507-2.189c1.196-.099 2.071-1.186 1.935-2.402a2.202 2.202 0 00-.388-1.025l-6.686-9.473c14.568-11.193 22.376-29.37 20.518-47.973zM33.297 85.984l-19.224 1.588 7.606-18.047 11.618 16.46zm-9.31-10.694c-.12-1.216-1.762-1.454-2.198-.317l-3.25 8.114c-.613 1.45 1.555 2.36 2.113.887l3.25-8.114c.075-.18.104-.376.084-.57z" fill="#FFA400"/></g><defs><clipPath id="clip0"><path fill="#fff" transform="rotate(84.297 25.508 29.256)" d="M0 0h87v52H0z"/></clipPath></defs></svg>