<svg width="50" height="50" fill="none" xmlns="http://www.w3.org/2000/svg"><path d="M13.623 49.023H9.582V38.755c0-.644.522-1.166 1.166-1.166h1.71c.645 0 1.167.522 1.167 1.166v10.268z" fill="#573F35"/><path d="M29.1 49.023h-4.346V30.598c0-.668.541-1.21 1.209-1.21h1.928c.668 0 1.21.542 1.21 1.21v18.425zM44.577 49.023h-4.424V16.518c0-.674.546-1.22 1.22-1.22h1.984c.674 0 1.22.546 1.22 1.22v32.505z" fill="#FFA400"/><path d="M47.695 48.047h-2.142v-31.1a2.628 2.628 0 00-2.625-2.625h-4.787a2.628 2.628 0 00-2.626 2.625v31.1h-5.438v-17.01a2.628 2.628 0 00-2.625-2.625h-4.788a2.628 2.628 0 00-2.625 2.626v17.009H14.6v-8.81a2.628 2.628 0 00-2.625-2.624H7.187a2.628 2.628 0 00-2.625 2.625v8.809H2.305a.977.977 0 100 1.953h45.39a.977.977 0 100-1.953zm-41.18 0v-8.81c0-.37.302-.671.672-.671h4.788c.37 0 .672.301.672.672v8.809H6.515zm15.477 0v-17.01c0-.37.301-.671.672-.671h4.787c.371 0 .672.301.672.672v17.009h-6.131zm15.476 0v-31.1c0-.37.302-.672.673-.672h4.787c.37 0 .672.301.672.672v31.1h-6.132zM10.678 27.19c.25 0 .5-.096.69-.287l16.866-16.865 3.64 3.64a.977.977 0 001.382 0L43.6 3.335v3.302a.977.977 0 101.953 0V1.074l-.002-.047A.973.973 0 0044.526.002L44.48 0h-5.908a.977.977 0 100 1.953h3.648l-9.654 9.654-3.64-3.64a.977.977 0 00-1.382 0L9.988 25.522a.977.977 0 00.69 1.667zM7.387 30.597a.977.977 0 100-1.953.977.977 0 000 1.953z" fill="#000"/></svg>