<svg width="50" height="50" fill="none" xmlns="http://www.w3.org/2000/svg"><g clip-path="url(#clip0)"><path d="M2.5 32.5H10v-1.667a1.68 1.68 0 011.667-1.666c.919.002 1.664.747 1.666 1.666V32.5h23.334v-1.667a1.672 1.672 0 011.666-1.666A1.68 1.68 0 0140 30.833V32.5h7.5a1.672 1.672 0 001.667-1.667V14.167A1.672 1.672 0 0047.5 12.5h-45a1.672 1.672 0 00-1.667 1.667v16.666c.003.92.748 1.665 1.667 1.667zM40 35.833h-3.333V32.5H13.333v3.333H10V32.5H2.5v11.667c.003.919.747 1.664 1.667 1.666h41.666a1.672 1.672 0 001.667-1.666V32.5H40v3.333z" fill="#FFA400"/><path d="M40 35.833v-5a1.68 1.68 0 00-1.667-1.666 1.672 1.672 0 00-1.666 1.666v5H40zM13.333 35.833v-5a1.672 1.672 0 00-1.666-1.666A1.68 1.68 0 0010 30.832v5h3.333zM15.8 9.166c0-.92.745-1.666 1.666-1.666H32.5c.92 0 1.667.746 1.667 1.666l-.045 3.334H37.5V9.166a5 5 0 00-5-5h-15a5 5 0 00-5 5V12.5h3.333L15.8 9.166z" fill="#573F35"/><path d="M47.5 11.667h-9.167v-2.5A5.84 5.84 0 0032.5 3.334h-15a5.84 5.84 0 00-5.833 5.833v2.5H2.5a2.5 2.5 0 00-2.5 2.5v16.666a2.5 2.5 0 001.667 2.347v10.987a2.5 2.5 0 002.5 2.5h41.666a2.5 2.5 0 002.5-2.5V33.18A2.5 2.5 0 0050 30.833V14.167a2.5 2.5 0 00-2.5-2.5zm-34.167-2.5A4.171 4.171 0 0117.5 5h15a4.171 4.171 0 014.167 4.167v2.5h-1.7l.033-2.5a2.505 2.505 0 00-2.5-2.5H17.47a2.505 2.505 0 00-2.5 2.5v.008l.022 2.492h-1.659v-2.5zm3.3 0c0-.46.373-.833.833-.833H32.5c.456 0 .827.365.833.821l-.033 2.512H16.658l-.026-2.5zm30.034 35c0 .46-.374.833-.834.833H4.167a.834.834 0 01-.834-.833V33.333h5.834v2.5c0 .46.373.834.833.834h3.333c.46 0 .834-.374.834-.834v-2.5h21.666v2.5c0 .46.374.834.834.834H40c.46 0 .833-.374.833-.834v-2.5h5.834v10.834zM12.5 35h-1.667v-4.167c0-.225.093-.439.256-.593a.793.793 0 01.578-.24c.46 0 .833.373.833.833V35zm26.667 0H37.5v-4.167c0-.46.373-.833.833-.833.225 0 .44.092.594.255.155.153.241.36.24.578V35zm9.166-4.167c0 .46-.373.834-.833.834h-6.667v-.834a2.51 2.51 0 00-2.5-2.5 2.5 2.5 0 00-2.5 2.5v.834H14.167v-.834a2.5 2.5 0 00-2.5-2.5 2.514 2.514 0 00-2.5 2.5v.834H2.5a.834.834 0 01-.833-.834V14.167c0-.46.373-.833.833-.833h45c.46 0 .833.373.833.833v16.666z" fill="#231F20"/></g><defs><clipPath id="clip0"><path fill="#fff" d="M0 0h50v50H0z"/></clipPath></defs></svg>