<svg width="50" height="50" fill="none" xmlns="http://www.w3.org/2000/svg"><g clip-path="url(#clip0)"><path d="M43.164 29.415V47.16a1.863 1.863 0 01-1.863 1.862H8.7a1.863 1.863 0 01-1.863-1.862V2.839c0-1.028.834-1.862 1.863-1.862H41.3c1.03 0 1.863.834 1.863 1.862v17.746" fill="#573F35"/><path d="M11.586 5.498h26.828v8.577H11.586V5.498z" fill="#fff"/><path d="M11.586 19.56H23.15V30.15H11.586V19.56zM26.85 19.56h11.564V30.15H26.85V19.56zM11.586 33.913H23.15v10.589H11.586V33.913zM26.85 33.913h11.564v10.589H26.85V33.913z" fill="#FFA400"/><path d="M43.164 25.959a.986.986 0 01-.919-.648.984.984 0 01.287-1.074.986.986 0 011.147-.084c.342.212.52.626.442 1.02a.986.986 0 01-.957.786zM34.637 38.574h-4.01a.977.977 0 110-1.953h4.01a.977.977 0 110 1.953zM34.637 41.566h-4.01a.977.977 0 110-1.953h4.01a.977.977 0 110 1.953zM34.637 25.831h-4.01a.977.977 0 110-1.953h4.01a.977.977 0 110 1.953zM19.374 23.878h-1.03V22.85a.977.977 0 10-1.952 0v1.028h-1.03a.977.977 0 100 1.954h1.03v1.028a.977.977 0 101.953 0v-1.028h1.029a.977.977 0 100-1.954zM19.477 37.099a.977.977 0 00-1.381 0l-.728.727-.727-.727a.977.977 0 00-1.381 1.38l.727.728-.728.728a.977.977 0 001.381 1.38l.728-.727.728.728a.973.973 0 001.38 0 .977.977 0 000-1.381l-.727-.728.728-.727a.976.976 0 000-1.381z" fill="#000"/><path d="M38.414 45.478H26.85a.977.977 0 01-.976-.977V33.913c0-.54.437-.976.976-.976h11.565c.54 0 .977.437.977.976v10.589c0 .539-.437.976-.977.976zm-10.588-1.953h9.612V34.89h-9.612v8.635zM23.15 45.478H11.587a.977.977 0 01-.977-.977V33.913c0-.54.437-.976.977-.976H23.15c.539 0 .976.437.976.976v10.589c0 .539-.437.976-.976.976zm-10.588-1.953h9.612V34.89h-9.612v8.635zM38.414 31.125H26.85a.977.977 0 01-.976-.976V19.56c0-.54.437-.977.976-.977h11.565c.54 0 .977.437.977.977v10.588c0 .54-.437.976-.977.976zm-10.588-1.953h9.612v-8.635h-9.612v8.635zM23.15 31.125H11.587a.977.977 0 01-.977-.976V19.56c0-.54.437-.977.977-.977H23.15c.539 0 .976.437.976.977v10.588c0 .54-.437.976-.976.976zm-10.588-1.953h9.612v-8.635h-9.612v8.635zM38.414 15.052H11.586a.977.977 0 01-.977-.977V5.498c0-.54.437-.977.977-.977h26.828c.54 0 .977.438.977.977v8.577c0 .54-.437.977-.977.977zm-25.852-1.953h24.876V6.475H12.562v6.624z" fill="#000"/><path d="M41.301 50H8.7a2.842 2.842 0 01-2.84-2.84V2.84A2.842 2.842 0 018.7 0H41.3a2.842 2.842 0 012.84 2.84v17.745a.977.977 0 01-1.953 0V2.84a.887.887 0 00-.887-.886H8.7a.887.887 0 00-.886.886v44.322c0 .488.397.886.886.886H41.3a.887.887 0 00.886-.886V29.415a.977.977 0 011.954 0V47.16A2.843 2.843 0 0141.3 50z" fill="#000"/></g><defs><clipPath id="clip0"><path fill="#fff" d="M0 0h50v50H0z"/></clipPath></defs></svg>