<svg width="50" height="50" fill="none" xmlns="http://www.w3.org/2000/svg"><path d="M44.531 45.313a3.125 3.125 0 01-3.125 3.124H8.594a3.125 3.125 0 003.125-3.124V1.563H44.53v43.75z" fill="#fff"/><path d="M42.188 1.563h-30.47v43.75a3.09 3.09 0 01-.433 1.562h27.777a3.125 3.125 0 003.126-3.125V1.562z" fill="#fff"/><path d="M35.156 19.89v7.454l-3.125-3.125-3.125 3.125V18.62a3.11 3.11 0 001.259.313c.511.034.994.245 1.367.596a3.104 3.104 0 003.624.36z" fill="#F9D266"/><path d="M38.281 18.621v14.192l-3.125-3.126-3.125 3.125V24.22l3.125 3.125V19.89c.178-.103.345-.224.5-.36a2.206 2.206 0 011.367-.597 3.11 3.11 0 001.258-.312z" fill="#FFA400"/><path d="M11.719 21.875h-6.25v23.438a3.125 3.125 0 106.25 0V21.875z" fill="#fff"/><path d="M17.969 10.938a3.125 3.125 0 100-6.25 3.125 3.125 0 000 6.25z" fill="#573F35"/><path d="M14.844 7.813c.002.704.245 1.387.688 1.935a3.11 3.11 0 003.745-4.766 3.11 3.11 0 00-4.433 2.83z" fill="#573F35"/><path d="M17.188 14.844h10.937v1.562H17.187v-1.562zM15.625 19.531h13.281v1.563H15.625V19.53zM15.625 24.219h13.281v1.562H15.625V24.22zM15.625 28.906h16.406v1.563H15.625v-1.563z" fill="#fff"/><path d="M38.281 35.938H17.97c-.863 0-1.563.7-1.563 1.562v4.688c0 .862.7 1.562 1.563 1.562H38.28c.863 0 1.563-.7 1.563-1.563V37.5c0-.863-.7-1.563-1.563-1.563z" fill="#FFA400"/><path d="M17.969 35.938a1.562 1.562 0 00-1.563 1.562v3.906h19.532a1.563 1.563 0 001.562-1.562v-3.907H17.969z" fill="#F9D266"/><path d="M26.563 14.562c.351.372.562.856.596 1.367a3.102 3.102 0 003.003 3.002c.51.034.994.245 1.367.597a3.102 3.102 0 004.123 0 2.208 2.208 0 011.367-.597 3.102 3.102 0 003.003-3.002c.036-.512.25-.996.603-1.367a3.102 3.102 0 000-4.124 2.208 2.208 0 01-.597-1.367 3.102 3.102 0 00-3.002-3.002 2.207 2.207 0 01-1.37-.6 3.102 3.102 0 00-4.124 0 2.207 2.207 0 01-1.367.596 3.102 3.102 0 00-3.002 3.003 2.207 2.207 0 01-.6 1.37 3.101 3.101 0 000 4.123z" fill="#FFA400"/><path d="M33.594 16.406a3.906 3.906 0 100-7.812 3.906 3.906 0 000 7.812z" fill="#F9D266"/><path d="M29.688 12.5c.004.65.172 1.288.488 1.855a3.868 3.868 0 001.855.489 3.906 3.906 0 003.907-3.906 3.866 3.866 0 00-.489-1.856 3.867 3.867 0 00-1.855-.488 3.906 3.906 0 00-3.907 3.906z" fill="#FCE797"/><path d="M44.531.781H11.72a.781.781 0 00-.781.781v19.532h-5.47a.781.781 0 00-.78.781v23.438a3.911 3.911 0 003.906 3.906h32.812a3.911 3.911 0 003.907-3.907V1.563a.781.781 0 00-.782-.78zM10.938 45.313a2.344 2.344 0 11-4.688 0V22.655h4.688v22.657zm32.812 0a2.344 2.344 0 01-2.344 2.343H11.72a3.886 3.886 0 00.781-2.343V2.343h31.25v42.97z" fill="#000"/><path d="M33.594 17.188a4.688 4.688 0 100-9.376 4.688 4.688 0 000 9.375zm0-7.813a3.125 3.125 0 110 6.25 3.125 3.125 0 010-6.25zM17.969 11.719a3.906 3.906 0 100-7.811 3.906 3.906 0 000 7.81zm0-6.25a2.344 2.344 0 110 4.688 2.344 2.344 0 010-4.688z" fill="#000"/><path d="M17.188 14.844v1.562h9.251a3.78 3.78 0 001.686 2.662v.463h-12.5v1.563h12.5v3.125h-12.5v1.562h12.5v1.563a.782.782 0 001.334.552l1.791-1.791v2.801H15.625v1.563H31.25v2.344a.781.781 0 001.334.552l2.572-2.573 2.573 2.573a.781.781 0 001.334-.552V19.068a3.845 3.845 0 001.742-3.113c.03-.329.172-.637.401-.874a3.883 3.883 0 000-5.161 1.449 1.449 0 01-.4-.875 3.884 3.884 0 00-3.758-3.757 1.44 1.44 0 01-.876-.4 3.985 3.985 0 00-5.163 0 1.44 1.44 0 01-.873.4 3.884 3.884 0 00-3.757 3.757c-.03.329-.172.637-.4.875a3.849 3.849 0 00-.176 4.922l-8.616.002zm12.5 4.81c.149.029.3.048.451.059.328.03.637.17.873.4.712.632 1.63.98 2.582.98.262 0 .524-.03.781-.085v4.453l-1.791-1.791a.781.781 0 00-1.105 0l-1.791 1.788v-5.803zM37.5 30.928l-1.791-1.792a.782.782 0 00-1.105 0l-1.791 1.792v-4.822l1.79 1.791a.781.781 0 001.334-.552v-7.031h-.034c.09-.067.187-.125.272-.2.237-.23.545-.37.873-.4.152-.01.303-.03.452-.058v11.272zm-10.35-19.97a2.95 2.95 0 00.793-1.86 2.322 2.322 0 012.248-2.248 2.953 2.953 0 001.859-.793 2.38 2.38 0 013.088 0 2.953 2.953 0 001.858.793 2.322 2.322 0 012.248 2.248c.038.694.319 1.353.794 1.86a2.32 2.32 0 010 3.086 2.95 2.95 0 00-.793 1.86 2.322 2.322 0 01-2.249 2.248 2.954 2.954 0 00-1.858.793 2.38 2.38 0 01-3.088 0 2.954 2.954 0 00-1.859-.793 2.321 2.321 0 01-2.248-2.248 2.95 2.95 0 00-.793-1.86 2.321 2.321 0 010-3.087zM38.281 35.156H17.97a2.344 2.344 0 00-2.344 2.344v4.688a2.344 2.344 0 002.344 2.343H38.28a2.344 2.344 0 002.344-2.343V37.5a2.344 2.344 0 00-2.344-2.344zm.782 7.032a.781.781 0 01-.782.78H17.97a.781.781 0 01-.782-.78V37.5a.781.781 0 01.782-.781H38.28a.781.781 0 01.782.781v4.688z" fill="#000"/></svg>