<svg width="50" height="50" fill="none" xmlns="http://www.w3.org/2000/svg"><path d="M30.28 46.283H19.72l.93-7.095h8.7l.93 7.095z" fill="#fff"/><path d="M29.58 40.946l-.23-1.758h-8.7l-.23 1.758h9.16z" fill="#fff"/><path d="M46.29 39.189H3.71a2.93 2.93 0 01-2.929-2.93V6.645a2.93 2.93 0 012.93-2.93h42.578a2.93 2.93 0 012.93 2.93v29.614a2.93 2.93 0 01-2.93 2.93z" fill="#FFA400"/><path d="M.781 33.01v3.249a2.93 2.93 0 002.93 2.93h42.578a2.93 2.93 0 002.93-2.93V33.01H.78z" fill="#fff"/><path d="M.781 31.253H49.22v1.758H.78v-1.758z" fill="#FFA400"/><path d="M46.29 37.43H3.71a2.93 2.93 0 01-2.929-2.929v1.758a2.93 2.93 0 002.93 2.93h42.578a2.93 2.93 0 002.93-2.93V34.5a2.93 2.93 0 01-2.93 2.93zM5.758 14.116h38.484v18.895H5.758V14.116z" fill="#fff"/><path d="M5.758 31.253h38.484v1.758H5.758v-1.758z" fill="#fff"/><path d="M42.778 8.314H7.222c-.809 0-1.464.656-1.464 1.465v4.338h38.484V9.779c0-.809-.655-1.465-1.464-1.465z" fill="#573F35"/><path d="M10.783 17.87h28.432v7.89H10.783v-7.89z" fill="#FFA400"/><path d="M10.783 24.003h28.432v1.758H10.783v-1.758zM10.783 29.014h12.464v3.997H10.783v-3.997zM26.753 29.014h12.464v3.997H26.753v-3.997z" fill="#FFA400"/><path d="M10.783 31.253h12.464v1.758H10.783v-1.758zM26.753 31.253h12.464v1.758H26.753v-1.758z" fill="#E7B93E"/><path d="M46.33 2.94H30.34a.734.734 0 100 1.467h15.99c1.215 0 2.202.988 2.202 2.202v25.684h-3.518V9.75a2.204 2.204 0 00-2.202-2.202H7.188A2.204 2.204 0 004.986 9.75v22.543H1.468V6.61c0-1.214.987-2.202 2.201-2.202h23.735a.734.734 0 100-1.468H3.669A3.674 3.674 0 000 6.61V36.28a3.673 3.673 0 003.67 3.67h16.135l-.74 5.64h-2.607a.734.734 0 100 1.468h17.084a.734.734 0 100-1.468h-2.607l-.74-5.64h7.776a.734.734 0 100-1.468H3.67a2.204 2.204 0 01-2.201-2.202v-2.52h47.064v2.52a2.204 2.204 0 01-2.201 2.202h-5.425a.734.734 0 000 1.468h5.425A3.673 3.673 0 0050 36.28V6.61a3.673 3.673 0 00-3.67-3.67zM29.455 45.59h-8.908l.74-5.64h7.429l.74 5.64zm-23-35.842c0-.404.329-.733.734-.733h35.624c.405 0 .734.329.734.733v3.612H6.454V9.75zm0 5.08h37.092v17.464h-3.568v-3.271a.734.734 0 00-.733-.734H26.757a.734.734 0 00-.734.734v3.271h-2.046v-3.271a.734.734 0 00-.734-.734H10.756a.734.734 0 00-.734.734v3.271H6.454V14.83zM38.51 32.293H27.49v-2.537h11.02v2.537zm-16.002 0H11.49v-2.537h11.02v2.537z" fill="#000"/><path d="M9.253 10.005a1.128 1.128 0 000 2.254c.621 0 1.127-.505 1.127-1.127 0-.621-.506-1.127-1.127-1.127zM12.87 10.005c-.621 0-1.127.505-1.127 1.127s.506 1.127 1.127 1.127a1.128 1.128 0 000-2.254zM16.488 10.005c-.622 0-1.128.505-1.128 1.127s.506 1.127 1.128 1.127c.621 0 1.127-.505 1.127-1.127 0-.621-.506-1.127-1.127-1.127zM10.755 26.497h5.34a.734.734 0 000-1.468h-4.606v-6.44h27.02v6.44H19.03a.734.734 0 100 1.468h20.214a.734.734 0 00.734-.734v-7.907a.734.734 0 00-.734-.734H10.755a.734.734 0 00-.733.734v7.907c0 .405.328.734.733.734z" fill="#000"/></svg>