<svg width="50" height="50" fill="none" xmlns="http://www.w3.org/2000/svg"><path d="M43.237 20.535l-4.297 8.679 1.758 3.363h5.08l1.756-3.438-4.297-8.604z" fill="#573F35"/><path d="M45.778 32.576h-5.08v4.064h5.08v-4.064z" fill="#FF991F"/><path d="M46.005 36.64h-1.481a2.513 2.513 0 00-2.514 2.514l.983 9.87h4.541l.984-9.87a2.513 2.513 0 00-2.513-2.513z" fill="#573F35"/><path d="M33.41 46.342V5.189c0-2.29 1.716-4.153 3.984-4.212H15.199a4.213 4.213 0 00-4.213 4.212v41.153c0 1.48 1.201 2.681 2.682 2.681h17.06c1.481 0 2.682-1.2 2.682-2.681zM41.835 13.605V4.708c0-2.06-1.67-3.731-3.731-3.731h-.71V14.85h3.197c.687 0 1.244-.558 1.244-1.245z" fill="#FFA400"/><path d="M11.066 13.443a6.746 6.746 0 014.563-6.383 6.745 6.745 0 100 12.764 6.746 6.746 0 01-4.563-6.381z" fill="#fff"/><path d="M20.193 13.443a6.746 6.746 0 00-4.564-6.383 6.746 6.746 0 00-4.564 6.383 6.746 6.746 0 004.564 6.382 6.746 6.746 0 004.564-6.382z" fill="#FFA400"/><path d="M42.812 13.409V5.277c0-2.832-2.263-5.199-5.044-5.275A6.716 6.716 0 0037.602 0H5.694a5.195 5.195 0 00-5.19 5.15v41.192A3.663 3.663 0 004.163 50h26.565a3.663 3.663 0 003.659-3.658V15.826h6.008a2.42 2.42 0 002.417-2.417zm-10.378-8.26v41.193c0 .94-.765 1.705-1.706 1.705H4.163c-.94 0-1.705-.765-1.705-1.705V5.189a3.24 3.24 0 013.235-3.236h27.872a5.14 5.14 0 00-1.131 3.196zm1.953.04c0-.88.348-1.705.98-2.32a3.21 3.21 0 012.248-.916h.008c.031 0 .06 0 .091.002 1.734.047 3.145 1.538 3.145 3.322v8.132a.465.465 0 01-.464.464h-6.008V5.19z" fill="#000"/><path d="M13.448 21.164c4.258 0 7.721-3.464 7.721-7.722 0-4.257-3.463-7.72-7.72-7.72-4.258 0-7.722 3.463-7.722 7.72 0 4.258 3.464 7.722 7.721 7.722zm0-13.49a5.775 5.775 0 015.768 5.769 5.775 5.775 0 01-5.768 5.768 5.775 5.775 0 01-5.768-5.768 5.775 5.775 0 015.768-5.769z" fill="#000"/><path d="M13.448 16.753a.977.977 0 000-1.953 1.359 1.359 0 01-1.357-1.357c0-.749.609-1.358 1.357-1.358a.977.977 0 000-1.953 3.314 3.314 0 00-3.31 3.31 3.314 3.314 0 003.31 3.311zM6.703 26.916h20.692a.977.977 0 000-1.954H6.703a.977.977 0 000 1.954zM6.703 31.057h20.692a.977.977 0 000-1.953H6.703a.977.977 0 000 1.953zM6.703 35.428h10.743a.977.977 0 000-1.953H6.703a.977.977 0 000 1.953zM46.756 35.746V32.81l1.649-3.227a.977.977 0 00.004-.88l-4.297-8.604a.977.977 0 00-.874-.54h-.002a.977.977 0 00-.873.543l-4.297 8.678a.976.976 0 00.01.886l1.646 3.152v2.928a3.495 3.495 0 00-2.74 3.408c0 .032.002.064.005.097l.982 9.869c.05.5.47.88.972.88h8.594c.502 0 .922-.38.972-.88l.984-9.87a.95.95 0 00.005-.096 3.495 3.495 0 00-2.74-3.408zm-5.081-2.193h3.127v2.111h-3.127v-2.11zm.586-8.845v4.08a.977.977 0 001.953 0v-4.112l2.227 4.458-1.26 2.466h-3.892l-1.253-2.398 2.225-4.494zm4.39 23.339h-6.826l-.89-8.936a1.539 1.539 0 011.537-1.494H46.006c.833 0 1.513.667 1.536 1.494l-.891 8.936zM16.298 42.808a.584.584 0 01-.663-.073 2.536 2.536 0 00-2.537-.476l-1.65.6c-.113.026-.229-.014-.32-.111l-.216-.234a2.267 2.267 0 00-2.351-.642l-1.928.6a.977.977 0 00.58 1.865l1.928-.6c.119-.038.242.001.339.105l.216.234a2.27 2.27 0 002.384.63l1.685-.611c.2-.073.422-.03.582.11a2.539 2.539 0 002.89.315.977.977 0 00-.939-1.712zM19.552 44.489a.977.977 0 100-1.954.977.977 0 000 1.954z" fill="#000"/></svg>