<svg width="50" height="50" fill="none" xmlns="http://www.w3.org/2000/svg"><path d="M35.409 27.404l-9.497 2.47a3.629 3.629 0 01-1.79.008l-10.02-2.498a3.567 3.567 0 01-2.703-3.46V12.977c0-6.762 5.482-12.245 12.245-12.245h2.19c6.762 0 12.244 5.483 12.244 12.245v10.974a3.567 3.567 0 01-2.67 3.452z" fill="#FD9727"/><path d="M25.833.733h-2.19c-.55 0-1.09.037-1.622.108 5.996.793 10.623 5.925 10.623 12.137v10.974a3.567 3.567 0 01-2.67 3.452l-7.73 2.01 1.877.468a3.629 3.629 0 001.791-.01l9.497-2.468a3.567 3.567 0 002.669-3.452V12.978c0-6.763-5.482-12.245-12.245-12.245z" fill="#FF6D3A"/><path d="M11.966 20.622h2.598v-6.344h-2.598c-.764 0-1.383.62-1.383 1.383v3.579c0 .763.62 1.382 1.383 1.382zM38.034 20.622h-2.598v-6.344h2.598c.764 0 1.383.62 1.383 1.383v3.579c0 .763-.62 1.382-1.383 1.382z" fill="#573F35"/><path d="M30.867 31.69a1.946 1.946 0 01-1.563-1.907v-4.387h-8.608v4.387c0 .927-.654 1.725-1.563 1.908l-1.049.21v7.045h13.832v-7.044l-1.049-.211z" fill="#fff"/><path d="M39.829 34.055l-8.634-2.692a.775.775 0 00-.764.178L25 36.688l-5.431-5.147a.776.776 0 00-.764-.178l-8.634 2.692a8.997 8.997 0 00-6.456 8.631v5.752c0 .458.371.829.83.829h40.91a.83.83 0 00.83-.83v-5.751a8.997 8.997 0 00-6.456-8.63z" fill="#573F35"/><path d="M39.829 34.055l-8.634-2.692a.775.775 0 00-.764.178l-1.015.962 4.979 1.552a8.997 8.997 0 016.456 8.631v6.58h4.605a.83.83 0 00.829-.828v-5.752a8.997 8.997 0 00-6.456-8.63z" fill="#573F35"/><path d="M25 29.043c-5.926 0-10.73-4.803-10.73-10.729v-3.015c0-5.926 4.804-10.73 10.73-10.73S35.73 9.373 35.73 15.3v3.015c0 5.926-4.804 10.73-10.73 10.73z" fill="#fff"/><path d="M19.569 31.54L25 36.689l-3.35 1.14a2.14 2.14 0 01-2.3-.615l-4.143-4.728 3.598-1.122a.775.775 0 01.764.178zM30.431 31.54l-5.43 5.148 3.035 1.034a2.636 2.636 0 002.832-.758l3.925-4.479-3.598-1.122a.776.776 0 00-.764.178z" fill="#FFA400"/><path d="M18.591 45.01H13.07a.555.555 0 01-.556-.556v-2.446c0-.306.249-.555.556-.555h5.522c.307 0 .555.249.555.555v2.446a.555.555 0 01-.555.556z" fill="#EDA558"/><path d="M38.078 15.24s-4.63-.368-6.213-4.626c0 0-11.19 8.96-20.466 4.626v-2.262C11.399 6.216 16.88.733 23.644.733h2.19c6.762 0 12.244 5.483 12.244 12.245v2.262z" fill="#FD9727"/><path d="M25.833.733h-2.19c-.55 0-1.09.037-1.622.108 5.701.754 10.164 5.43 10.59 11.23 1.951 2.89 5.467 3.169 5.467 3.169v-2.262c0-6.763-5.482-12.245-12.245-12.245z" fill="#FF6D3A"/><path d="M26.913 27.709a1.418 1.418 0 01-.238-2.815l2.39-.41a1.417 1.417 0 11.479 2.794l-2.39.41c-.08.014-.162.02-.241.02z" fill="#FFA400"/><path d="M45.08 36.858a9.659 9.659 0 00-5.038-3.504l-5.03-1.568-3.598-1.122a1.506 1.506 0 00-.968.024 1.216 1.216 0 01-.409-.905v-.225l5.556-1.445a4.3 4.3 0 003.218-4.161v-2.745a2.118 2.118 0 001.339-1.967v-3.58c0-.897-.55-1.658-1.34-1.966v-.716c0-.553-.034-1.108-.103-1.653a.734.734 0 00-1.455.185c.062.483.093.977.093 1.468v1.389a8.002 8.002 0 01-1.44-.496l-.077-.036c-1.035-.486-2.188-1.315-2.936-2.72a9.648 9.648 0 01-.116-.23 6.286 6.286 0 01-.06-.13l-.055-.123a6.6 6.6 0 01-.11-.274.733.733 0 00-.663-.477h-.033c-.017.001-.035 0-.053.002a.733.733 0 00-.354.13l-.041.028a2.88 2.88 0 01-.03.024l-.005.004-.022.017-.017.013-.022.017-.035.026-.018.014-.054.04-.012.01c-1.357 1.018-8.905 6.371-16.148 5.35l-.039-.006a12.653 12.653 0 01-.749-.132l-.097-.02a11.814 11.814 0 01-.346-.081l-.14-.037a12.545 12.545 0 01-.825-.248 11.21 11.21 0 01-.687-.258l-.03-.012v-1.784c0-6.348 5.165-11.512 11.512-11.512h2.19c4.603 0 8.755 2.732 10.577 6.96a.733.733 0 101.347-.58A12.973 12.973 0 0025.833 0h-2.19c-7.155 0-12.977 5.822-12.977 12.978v1.017a2.118 2.118 0 00-.816 1.665v3.58c0 .676.32 1.28.816 1.667v3.016a4.293 4.293 0 003.26 4.172l6.037 1.505v.183c0 .35-.154.678-.409.905a1.509 1.509 0 00-.967-.024l-3.598 1.121h-.001l-5.03 1.569a9.704 9.704 0 00-6.434 6.129.733.733 0 101.384.483 8.242 8.242 0 015.47-5.207l.011-.004 4.58-1.428 3.83 4.37a2.865 2.865 0 003.088.826L25 37.463l2.8.953a3.359 3.359 0 003.62-.969l3.61-4.12 4.58 1.428.012.004a8.204 8.204 0 014.283 2.977 8.203 8.203 0 011.647 4.95v5.752a.096.096 0 01-.096.096h-3.96v-6.702a.733.733 0 00-1.466 0v6.702H9.97v-6.702a.733.733 0 10-1.466 0v6.702h-3.96a.096.096 0 01-.096-.096v-5.28a.733.733 0 10-1.466 0v5.28c0 .861.7 1.562 1.562 1.562h40.912c.861 0 1.562-.7 1.562-1.562v-5.752a9.66 9.66 0 00-1.939-5.828zm-7.735-12.906c0 1.29-.872 2.417-2.12 2.742l-3.521.915c.045-.032.088-.067.133-.1l.054-.042c.126-.094.25-.191.37-.29l.047-.04c.13-.107.257-.217.381-.33l.018-.016c.199-.18.39-.368.576-.562l.041-.044c.092-.097.182-.195.27-.295l.828-.142a3.818 3.818 0 002.923-2.387v.59zm-.987-4.091c.033-.242.058-.486.075-.732l.005-.074c.006-.096.011-.192.015-.29l.003-.093c.004-.119.006-.238.006-.358V15.65a8.088 8.088 0 001.556.32h.002a.733.733 0 00.61-.25l.018-.022.031-.04.005-.006v3.588a.65.65 0 01-.618.647h-.013c-.011 0-.022 0-.035.002h-1.664l.004-.028zm-1.163 3.69a11.17 11.17 0 00.352-.75l.065-.154c.036-.09.072-.18.107-.272.015-.042.032-.083.048-.125.042-.116.082-.233.12-.35l.044-.132c.038-.121.074-.243.109-.366l.014-.047h.083v.62c0 .877-.477 1.652-1.205 2.06.018-.032.035-.066.054-.098l.124-.225.085-.161zM11.7 19.83h-.002a.65.65 0 01-.382-.591v-3.233l.065.028a8.352 8.352 0 00.321.135l.097.038c.098.04.198.078.298.114l.012.005c.464.17.941.314 1.428.432v1.555c0 .12.003.24.007.359l.003.093c.004.097.009.193.015.289l.005.075c.017.245.043.49.075.73l.004.029h-1.68a.646.646 0 01-.266-.058zm2.58 6.841a2.829 2.829 0 01-2.148-2.75v-2.567h1.815l.014.046a10.958 10.958 0 00.278.862l.05.13a11.303 11.303 0 00.31.735l.068.145a11.151 11.151 0 00.499.923 10.868 10.868 0 00.388.603 11.712 11.712 0 00.532.712l.08.1.166.195.04.046c.104.118.21.234.318.348l.055.058a11.674 11.674 0 00.729.694l.041.036c.204.177.414.346.63.508l.01.007c.094.07.186.14.281.206l-4.156-1.037zm1.335-4.914l-.008-.022a10.188 10.188 0 01-.076-.216l-.005-.014a9.881 9.881 0 01-.196-.657l-.013-.047-.04-.16-.026-.114a9.576 9.576 0 01-.183-1.08l-.008-.07a10.538 10.538 0 01-.019-.202l-.005-.062a9.572 9.572 0 01-.014-.208l-.004-.059c-.004-.07-.006-.14-.009-.211l-.002-.056a10.267 10.267 0 01-.003-.266V17.03c1.09.14 2.232.156 3.415.05l.116-.01a18.194 18.194 0 00.545-.06l.072-.01c1.99-.256 4.084-.846 6.247-1.775a33.975 33.975 0 006.168-3.474c.875 1.69 2.201 2.707 3.425 3.318.002.077.004.155.004.23v3.015c0 .089-.001.177-.004.266l-.002.056a9.91 9.91 0 01-.008.212l-.004.059-.014.207-.006.062a9.141 9.141 0 01-.019.202l-.008.07c-.007.064-.014.127-.023.19l-.012.084a10.86 10.86 0 01-.025.171l-.017.103a8.82 8.82 0 01-.106.532l-.026.114-.04.16-.013.049c-.058.22-.123.439-.195.653l-.006.017a10.157 10.157 0 01-.084.238 9.99 9.99 0 01-1.566 2.777l-1.647.282a2.14 2.14 0 00-2.23-1.055l-2.39.41a2.153 2.153 0 00-1.756 2.482c.125.73.605 1.317 1.244 1.601a9.938 9.938 0 01-5.119-.817l-.082-.038a10.053 10.053 0 01-5.223-5.643zm14.248 4.52a.68.68 0 01-.443.278l-2.39.41a.682.682 0 01-.79-.559.685.685 0 01.559-.79l2.39-.41a.68.68 0 01.79.559.68.68 0 01-.116.511zm-8.449 10.857a1.404 1.404 0 01-1.513-.404l-3.4-3.881 2.522-.787c.014-.004.03 0 .041.01l4.55 4.313-2.2.75zM25 35.678l-4.294-4.069c.455-.488.723-1.139.723-1.827v-.573l.144.044.072.022c.145.045.291.086.438.125l.079.02c.082.021.164.042.246.06.02.006.042.01.064.015a11.568 11.568 0 00.573.114c.07.012.138.024.208.034a11.563 11.563 0 00.747.09 11.525 11.525 0 00.49.032l.108.004a11.687 11.687 0 00.804 0l.107-.004c.127-.006.253-.013.378-.023l.113-.01a11.209 11.209 0 00.747-.089c.07-.01.138-.022.207-.034a10.75 10.75 0 00.574-.114l.064-.014.246-.06.079-.021c.147-.039.292-.08.438-.125l.072-.022.144-.044v.573c0 .688.268 1.34.722 1.827L25 35.678zm5.317.803a1.897 1.897 0 01-2.045.547l-1.887-.642 4.55-4.313a.042.042 0 01.042-.01l2.522.787-3.182 3.631z" fill="#000"/><path d="M18.591 45.743a1.29 1.29 0 001.288-1.288V42.01a1.29 1.29 0 00-1.288-1.288h-5.522a1.29 1.29 0 00-1.289 1.288v2.446c0 .71.578 1.288 1.289 1.288h5.522zm-5.345-3.556h5.167v2.09h-5.167v-2.09z" fill="#000"/></svg>