<svg width="50" height="50" fill="none" xmlns="http://www.w3.org/2000/svg"><path d="M40 49.167H5v-45h23.333L40 15.834v33.333z" fill="#fff"/><path d="M45 44.166H10V.833h23.333L45 12.5v31.666z" fill="#FDBD40"/><path d="M33.333 12.5H45L33.333.833V12.5z" fill="#fff"/><path d="M16.667 37.5H15a.833.833 0 010-1.667h1.667a.833.833 0 010 1.667zM40 37.5H20a.833.833 0 010-1.667h20a.833.833 0 010 1.667zM16.667 32.5H15a.833.833 0 010-1.667h1.667a.833.833 0 010 1.667zM40 32.5H20a.833.833 0 010-1.667h20a.833.833 0 010 1.667zM16.667 27.5H15a.833.833 0 010-1.667h1.667a.833.833 0 010 1.667zM40 27.5H20a.833.833 0 010-1.667h20a.833.833 0 010 1.667zM16.667 22.5H15a.833.833 0 010-1.667h1.667a.833.833 0 010 1.667zM40 22.5H20a.833.833 0 010-1.667h20a.833.833 0 010 1.667zM16.667 17.5H15a.833.833 0 010-1.667h1.667a.833.833 0 010 1.667zM40 17.5H20a.833.833 0 010-1.667h20a.833.833 0 010 1.667zM15 8.333h5v5h-5v-5z" fill="#573F35"/><path d="M15 37.5h1.667a.833.833 0 000-1.667H15a.833.833 0 000 1.667zM40 35.833H20a.833.833 0 000 1.667h20a.833.833 0 000-1.667zM15 32.5h1.667a.833.833 0 000-1.667H15a.833.833 0 000 1.667zM40 30.833H20a.833.833 0 000 1.667h20a.833.833 0 000-1.667zM15 27.5h1.667a.833.833 0 000-1.667H15a.833.833 0 000 1.667zM40 25.833H20a.833.833 0 000 1.667h20a.833.833 0 000-1.667zM15 22.5h1.667a.833.833 0 000-1.667H15a.833.833 0 000 1.667zM40 20.833H20a.833.833 0 000 1.667h20a.833.833 0 000-1.667zM15 17.5h1.667a.833.833 0 000-1.667H15a.833.833 0 000 1.667zM19.167 16.666c0 .46.373.834.833.834h20a.833.833 0 000-1.667H20a.833.833 0 00-.833.833z" fill="#000"/><path d="M5 50h35c.46 0 .833-.373.833-.833V45H45c.46 0 .833-.373.833-.833V12.5c0-.018-.009-.034-.01-.053a.788.788 0 00-.043-.214c-.01-.026-.016-.052-.028-.078a.834.834 0 00-.166-.244L33.919.244a.834.834 0 00-.244-.166c-.026-.012-.052-.019-.078-.028a.83.83 0 00-.215-.043c-.014.002-.03-.007-.049-.007H10a.833.833 0 00-.833.833v2.5H5a.833.833 0 00-.833.834v45c0 .46.373.833.833.833zm37.988-38.333h-8.821V2.845l8.821 8.822zm-32.155-10H32.5V12.5c0 .46.373.833.833.833h10.834v30H10.833V1.667zM5.833 5h3.334v39.167c0 .46.373.833.833.833h29.167v3.333H5.833V5z" fill="#000"/><path d="M15 14.167h5c.46 0 .833-.373.833-.834v-5A.833.833 0 0020 7.5h-5a.833.833 0 00-.833.833v5c0 .46.373.834.833.834zm.833-5h3.334V12.5h-3.334V9.167z" fill="#000"/></svg>