<svg width="50" height="50" fill="none" xmlns="http://www.w3.org/2000/svg"><path d="M23.438 2.344h3.125V7.03h-3.125V2.344z" fill="#573F35"/><path d="M22.656 5.469h4.688a15.625 15.625 0 0115.625 15.625v2.343H7.03v-2.343A15.625 15.625 0 0122.656 5.469zM25.781 44.531h9.375v3.125h-9.375v-3.125z" fill="#573F35"/><path d="M3.125 22.656h43.75v1.563a1.562 1.562 0 01-1.563 1.562H4.688a1.563 1.563 0 01-1.563-1.562v-1.563z" fill="#573F35"/><path d="M13.565 28.125l-.649-1.428a1.562 1.562 0 00-1.422-.916h-.446c-1.425 0-2.106 1.752-1.055 2.715l6.413 5.879v-6.25h-2.84z" fill="#FFA400"/><path d="M34.375 44.531v-2.343l.647-.648a3.124 3.124 0 00.916-2.21v-4.955l2.902-6.385a1.562 1.562 0 00-1.423-2.209h-1.333a1.562 1.562 0 00-1.372.815l-4.243 7.779-3.125.781-7.813-3.125-2.693-5.386a1.562 1.562 0 00-1.397-.864h-.514a1.561 1.561 0 00-1.423 2.21l2.902 6.384 11.719 10.156h6.25z" fill="#FFA400"/><path d="M4.688 26.563H8.84a2.327 2.327 0 00.624 2.509l6.414 5.878.017.015L26.03 43.75h-.25a.781.781 0 00-.781.781v3.125a.781.781 0 00.781.782h9.375a.781.781 0 00.782-.782v-3.125a.781.781 0 00-.782-.781v-1.239l.419-.418a3.88 3.88 0 001.144-2.762v-4.787l2.832-6.23c.252-.552.279-1.18.076-1.752h5.685a2.346 2.346 0 002.344-2.343v-1.563a.781.781 0 00-.781-.781H43.75v-.781c0-9.047-7.36-16.407-16.406-16.407V3.125h.781a.781.781 0 100-1.563h-6.25a.781.781 0 100 1.563h.781v1.563c-9.046 0-16.406 7.36-16.406 16.406v.781H3.125a.781.781 0 00-.781.781v1.563a2.346 2.346 0 002.344 2.343zm5.632.498a.764.764 0 01.728-.498h.446a.783.783 0 01.711.457l.588 1.292v.002l1.316 2.896-3.589-3.29a.764.764 0 01-.2-.86zm24.055 19.814h-7.813v-1.563h7.813v1.563zm3.699-19.954a.767.767 0 01.054.746l-2.902 6.385a.784.784 0 00-.07.323v4.956a2.328 2.328 0 01-.686 1.657l-.647.647a.78.78 0 00-.23.553v1.562h-5.177l-11.37-9.853-2.831-6.23a.78.78 0 01.712-1.105h.514a.777.777 0 01.698.432l2.694 5.387a.781.781 0 00.408.376l7.813 3.125c.152.06.32.072.48.032l3.124-.781a.78.78 0 00.497-.384l4.243-7.78a.782.782 0 01.686-.407h1.333a.768.768 0 01.657.359zm-20.404-.358h16.17L29.947 33.7l-2.548.637-7.301-2.921-2.428-4.854zM24.22 3.125h1.562v1.563H24.22V3.125zM7.812 21.094c0-8.185 6.66-14.844 14.844-14.844h4.688c8.185 0 14.843 6.659 14.843 14.844v.781H7.813v-.781zm-3.906 2.343h42.188v.782a.782.782 0 01-.782.781H4.688a.782.782 0 01-.782-.781v-.782z" fill="#000"/></svg>