<svg width="50" height="50" fill="none" xmlns="http://www.w3.org/2000/svg"><path d="M8.487 36.4h12.287v5.706H8.487V36.4z" fill="#FFA400"/><path d="M.977 42.106h27.307v3.932H.977v-3.932z" fill="#573F35"/><path d="M22.525 14.626h22.084v5.805H22.525v-5.805z" fill="#FFA400"/><path d="M49.023 17.26v.538a2.634 2.634 0 01-2.633 2.633h-1.781v-5.805h1.78a2.634 2.634 0 012.634 2.634z" fill="#573F35"/><path d="M12.516 21.772h-.02v4.926h10.028V8.36H12.496V12.984l.02-.001v8.79z" fill="#FFA400"/><path d="M24.095 26.697v3.044c0 .748-.607 1.355-1.355 1.355H12.28a1.355 1.355 0 01-1.355-1.355v-3.044h13.17zM24.095 5.317V8.36h-13.17V5.317c0-.748.607-1.355 1.355-1.355h10.46c.748 0 1.355.606 1.355 1.355z" fill="#573F35"/><path d="M46.39 13.65h-.805v-.402a.977.977 0 00-1.953 0v.402H28.24v-.402a.977.977 0 00-1.953 0v.402H23.5V9.337h.595c.54 0 .977-.437.977-.977V5.317a2.334 2.334 0 00-2.332-2.332H12.28a2.334 2.334 0 00-2.332 2.332V8.36c0 .54.438.977.977.977h.595v3.744a.976.976 0 001.016.976.96.96 0 00.937-.976V9.337h8.074V25.72h-8.074V21.87a.96.96 0 00-.977-.977.976.976 0 00-.976.976v3.852h-.595a.977.977 0 00-.977.977v3.043a2.334 2.334 0 002.332 2.332h10.46a2.334 2.334 0 002.332-2.332v-3.043a.977.977 0 00-.977-.977H23.5v-4.313h2.786v.402a.977.977 0 001.953 0v-.402h15.393v.402a.977.977 0 001.953 0v-.402h.805c.964 0 1.87-.375 2.553-1.057A3.587 3.587 0 0050 17.798v-.538c0-1.99-1.62-3.61-3.61-3.61zM11.9 7.384V5.317c0-.209.17-.379.379-.379h10.46a.38.38 0 01.378.379v2.067H11.902zM23.118 29.74c0 .209-.17.379-.378.379H12.28a.379.379 0 01-.378-.379v-2.067h11.216v2.067zm.384-10.286v-3.852h2.784v3.852h-2.784zm4.737 0v-3.852h15.393v3.852H28.24zm19.808-1.657c0 .443-.173.859-.486 1.172-.313.313-.729.485-1.171.485h-.805v-3.852h.805a1.66 1.66 0 011.657 1.657v.538zM4.542 33.638a.976.976 0 101.675-1.006l-1.598-2.661a.977.977 0 00-1.675 1.005l1.598 2.662z" fill="#000"/><path d="M26.934 34.36c.303 0 .602-.141.793-.406l4.85-6.729a.977.977 0 10-1.585-1.142l-4.85 6.729a.977.977 0 00.792 1.547zM6.34 29.575a.977.977 0 101.808-.74l-2.521-6.153a.977.977 0 00-1.808.74l2.521 6.153zM12.122 18.254a.985.985 0 001.292-.574.984.984 0 00-.635-1.261c-1.152-.351-1.762 1.374-.657 1.835zM35.012 45.062H29.26v-2.956a.977.977 0 00-.977-.977h-6.533v-3.752h2.021a.977.977 0 000-1.953H5.49a.977.977 0 000 1.953H7.51v3.752H.977a.977.977 0 00-.977.977v3.932c0 .54.437.977.977.977h34.035a.977.977 0 100-1.953zM9.463 37.377h10.335v3.752H9.463v-3.752zm-7.51 5.706h25.355v1.979H1.953v-1.98zM40.22 45.665c-.46-1.104-2.188-.496-1.836.657a.986.986 0 001.217.65.987.987 0 00.619-1.307z" fill="#000"/></svg>