<svg width="50" height="50" fill="none" xmlns="http://www.w3.org/2000/svg"><path d="M35.363 40.729v-6.714H21.375v6.714a4.674 4.674 0 004.674 4.674h4.64a4.674 4.674 0 004.674-4.674z" fill="#573F35"/><path d="M27.55 45.395h-1.454a2.997 2.997 0 00-2.997 2.997v.631h7.448v-.631a2.997 2.997 0 00-2.997-2.998zM37.612 32.452v-.52c0-.862-.699-1.562-1.562-1.562H20.054c-.863 0-1.563.7-1.563 1.563v.519c0 .863.7 1.563 1.563 1.563H36.05c.863 0 1.563-.7 1.563-1.563zM27.93 1.474a8.855 8.855 0 000 16.71 8.855 8.855 0 000-16.71z" fill="#FFA400"/><path d="M32.373 25.507a4.394 4.394 0 00-4.394 4.394v.47h2.649a4.394 4.394 0 004.394-4.395v-.47h-2.65zM18.979 21.677a4.394 4.394 0 004.318 3.587h1.628a4.394 4.394 0 00-4.319-3.587h-1.628z" fill="#FFA400"/><path d="M35.84 29.394h-1.072a5.346 5.346 0 001.23-3.418v-2.553a.977.977 0 00-.976-.976h-5.628a5.346 5.346 0 00-3.417 1.23V19.61c4.962-.492 8.852-4.69 8.852-9.78C34.829 4.409 30.419 0 25 0c-5.42 0-9.829 4.41-9.829 9.829 0 5.09 3.89 9.288 8.852 9.78v2.322a5.346 5.346 0 00-3.417-1.23h-3.363a.977.977 0 00-.976.976v.983c0 2.962 2.409 5.37 5.37 5.37h2.386v1.364h-9.862a2.753 2.753 0 00-2.75 2.75v.097c0 1.346.971 2.467 2.25 2.703V40.1c0 3.165 2.353 5.79 5.402 6.218a3.95 3.95 0 00-.586 2.075v.631c0 .54.437.977.976.977h11.094c.54 0 .976-.437.976-.977v-.631c0-.76-.215-1.471-.586-2.075 3.049-.429 5.403-3.053 5.403-6.218v-5.154a2.754 2.754 0 002.249-2.704v-.098a2.752 2.752 0 00-2.75-2.75zM17.123 9.829c0-4.343 3.533-7.876 7.876-7.876s7.876 3.533 7.876 7.876c0 4.342-3.533 7.875-7.876 7.875s-7.876-3.533-7.876-7.875zM18.22 22.66v-.006h2.386a3.421 3.421 0 013.417 3.417v.007h-2.386a3.421 3.421 0 01-3.417-3.418zm7.757 5.157a3.421 3.421 0 013.417-3.417h4.651v1.577a3.421 3.421 0 01-3.417 3.417h-4.651v-1.577zm-5.518 20.23a2.025 2.025 0 011.81-1.668h5.462a2.025 2.025 0 011.81 1.668h-9.082zM36.636 32.24c0 .44-.357.797-.797.797H23.293a.977.977 0 000 1.953h11.094v5.108a4.332 4.332 0 01-4.328 4.327H19.94a4.332 4.332 0 01-4.327-4.327v-6.084a.977.977 0 00-.976-.977h-.476a.797.797 0 01-.797-.797v-.098c0-.439.357-.796.797-.796h21.678c.44 0 .797.357.797.796v.098z" fill="#000"/><path d="M25.977 15.28v-.607a2.56 2.56 0 002.225-2.534v-.75a2.56 2.56 0 00-2.557-2.557h-1.29a.604.604 0 01-.604-.604v-.75c0-.333.27-.604.604-.604h1.43c.256 0 .464.208.464.464a.977.977 0 001.953 0 2.42 2.42 0 00-2.225-2.409v-.592a.977.977 0 00-1.954 0v.606a2.56 2.56 0 00-2.225 2.535v.75a2.56 2.56 0 002.557 2.557h1.29c.333 0 .604.27.604.603v.751c0 .333-.27.604-.604.604h-1.43a.465.465 0 01-.464-.465.977.977 0 10-1.953 0 2.42 2.42 0 002.226 2.41v.592a.977.977 0 101.953 0zM19.157 34.991a.977.977 0 100-1.953.977.977 0 000 1.953z" fill="#000"/></svg>