<svg width="50" height="50" fill="none" xmlns="http://www.w3.org/2000/svg"><path d="M13.568 42.716h30.868a4.588 4.588 0 004.587-4.588v-1.534H29.247a2.624 2.624 0 01-2.625 2.624h-3.27a2.624 2.624 0 01-2.624-2.624h-9.475a9.617 9.617 0 002.315 6.122z" fill="#573F35"/><path d="M42.587 7.284H14.42v29.31h6.3c0 1.48 1.2 2.68 2.682 2.68h3.22c1.48 0 2.68-1.2 2.68-2.68h16.318V10.318a3.035 3.035 0 00-3.035-3.035z" fill="#573F35"/><path d="M41.618 11.45H8.712v21.036h32.906V11.45z" fill="#fff"/><path d="M41.618 15.88H14.795v16.605h26.823V15.88z" fill="#FFA400"/><path d="M14.205 24.61a.977.977 0 100-1.954.977.977 0 000 1.953zM19.782 27.864a.977.977 0 100-1.953.977.977 0 000 1.953zM25.338 21.81a.977.977 0 100-1.953.977.977 0 000 1.954zM30.783 24.22a.977.977 0 100-1.953.977.977 0 000 1.953zM36.166 17.323a.977.977 0 100-1.953.977.977 0 000 1.953z" fill="#000"/><path d="M49.023 35.617H29.246a.977.977 0 00-.976.976 1.65 1.65 0 01-1.648 1.648h-3.27a1.65 1.65 0 01-1.648-1.648.977.977 0 00-.976-.976H5.355V10.319a2.06 2.06 0 012.058-2.058h35.173a2.06 2.06 0 012.059 2.058V29.12a.977.977 0 001.953 0v-18.8c0-2.213-1.8-4.012-4.012-4.012H7.413a4.016 4.016 0 00-4.011 4.011v25.298H.977a.977.977 0 00-.977.976v1.535a5.57 5.57 0 005.564 5.564h38.872A5.57 5.57 0 0050 38.128v-1.535a.977.977 0 00-.977-.976zm-.976 2.51a3.615 3.615 0 01-3.611 3.612H5.564a3.615 3.615 0 01-3.61-3.611v-.558h17.932a3.607 3.607 0 003.466 2.624h3.27a3.607 3.607 0 003.466-2.624h17.959v.558z" fill="#000"/><path d="M41.618 10.473H8.712a.977.977 0 00-.976.976v21.037c0 .539.437.976.976.976h32.906c.54 0 .977-.437.977-.976V11.449a.977.977 0 00-.977-.976zm-.977 21.036h-3.498V19.805a.977.977 0 00-1.953 0V31.51h-3.537v-4.345a.977.977 0 00-1.954 0v4.345h-3.537v-6.601a.977.977 0 10-1.953 0v6.601h-3.537v-.943a.977.977 0 10-1.953 0v.943h-3.537v-3.872a.977.977 0 00-1.953 0v3.872h-3.54V12.426h30.953v19.083zM45.507 33.913a.977.977 0 100-1.953.977.977 0 000 1.953z" fill="#000"/></svg>