<svg width="50" height="50" fill="none" xmlns="http://www.w3.org/2000/svg"><path d="M42.45 13.867H15.04v29.082h5.72c0 1.43 1.16 2.589 2.59 2.589h3.294c1.43 0 2.59-1.16 2.59-2.59H45.46v-26.07a3.011 3.011 0 00-3.01-3.011z" fill="#573F35"/><path d="M13.485 49.023h30.8a4.552 4.552 0 004.552-4.552V42.95H29.214a2.604 2.604 0 01-2.604 2.604h-3.245a2.604 2.604 0 01-2.604-2.604h-9.573a9.513 9.513 0 002.297 6.074z" fill="#FFA400"/><path d="M41.49 18H8.838v20.873h32.65V18z" fill="#fff"/><path d="M41.49 20.8H13.25v18.073h28.24V20.801z" fill="#FFA400"/><path d="M30.842 21.993l.584-4.633-2.02-2.02-.94 7.455 5.619 5.07V24.92l-3.243-2.926z" fill="#fff"/><path d="M34.085 24.92v-1.416a8.414 8.414 0 00-2.464-5.949l-.195-.195-.584 4.633 3.243 2.926z" fill="#573F35"/><path d="M20.61 18.629l.45-.425-.3-2.896-2.38 2.246a8.414 8.414 0 00-2.465 5.95v4.36l2.23-2.012v-1.274c0-2.231.887-4.371 2.465-5.95z" fill="#fff"/><path d="M21.06 18.205l-.45.424a8.414 8.414 0 00-2.465 5.95v1.273l3.39-3.058-.476-4.59z" fill="#573F35"/><path d="M24.45 13.237a15.266 15.266 0 012.617-10.235 15.28 15.28 0 00-1.273-1.61l-.172-.189a.69.69 0 00-1.03.008l-.323.367a15.267 15.267 0 00-3.724 11.66l1.14 11.004a11.658 11.658 0 005.252.311c-.517-.088-.97-.2-1.346-.311l-1.14-11.005z" fill="#fff"/><path d="M29.63 13.558a15.267 15.267 0 00-2.563-10.556 15.266 15.266 0 00-2.616 10.236l1.14 11.004c.376.111.828.223 1.346.312.518-.089.971-.201 1.346-.312l1.348-10.684z" fill="#FFA400"/><path d="M48.837 41.972H29.214a.977.977 0 00-.977.977 1.63 1.63 0 01-1.627 1.627h-3.245a1.63 1.63 0 01-1.628-1.627.977.977 0 00-.976-.977H5.515V16.878c0-1.122.913-2.034 2.035-2.034h12.18l.008.085-2.029 1.915a9.33 9.33 0 00-2.77 6.66v4.36a.977.977 0 001.63.726l4.274-3.856c.123.21.322.372.565.444 1.148.34 2.336.513 3.533.517h.043c1.211 0 2.414-.174 3.576-.517a.975.975 0 00.575-.464l4.296 3.876a.976.976 0 001.63-.725v-4.36a9.33 9.33 0 00-2.75-6.64l-1.876-1.877.018-.145H42.45c1.122 0 2.035.913 2.035 2.035v17.905a.977.977 0 001.953 0V16.878a3.993 3.993 0 00-3.988-3.988H30.68A16.224 16.224 0 0026.517.736l-.171-.189A1.669 1.669 0 0025.11 0h-.013c-.474.004-.925.21-1.238.566l-.324.367a16.293 16.293 0 00-4.003 11.957H7.55a3.992 3.992 0 00-3.988 3.988v25.094h-2.4a.977.977 0 00-.976.977v1.522A5.535 5.535 0 005.715 50h38.57a5.535 5.535 0 005.529-5.529V42.95a.976.976 0 00-.977-.977zM16.892 25.668v-2.164c0-1.982.77-3.846 2.168-5.25l.931-.878.521 5.026-3.62 3.266zm14.038-7.422a7.389 7.389 0 012.178 5.259v2.164l-3.61-3.258.16-1.273.467-3.697.805.805zM25.002 2.224l.112-.127a14.275 14.275 0 013.548 11.338l-.225 1.78v.003l-.94 7.455-.1.793c-.791.183-1.6.276-2.413.276h-.036a10.664 10.664 0 01-2.361-.273l-.77-7.426-.086-.835-.215-2.071c-.41-3.953.861-7.93 3.486-10.913zM47.861 44.47a3.58 3.58 0 01-3.576 3.576H5.715a3.58 3.58 0 01-3.576-3.576v-.546h17.78a3.587 3.587 0 003.446 2.604h3.245a3.587 3.587 0 003.445-2.604H47.86v.546z" fill="#000"/><path d="M12.913 18.977a.977.977 0 000-1.953H8.838a.977.977 0 00-.976.976v20.873c0 .54.437.977.976.977H41.49c.54 0 .977-.438.977-.977V18a.977.977 0 00-.977-.976h-4.916a.977.977 0 000 1.953h3.94v18.92H9.815v-18.92h3.098zM25 11.286a.977.977 0 100-1.953.977.977 0 000 1.953zM45.462 40.017a.977.977 0 100-1.954.977.977 0 000 1.954z" fill="#000"/><path d="M23.437 32.066v-3.975a.977.977 0 00-1.953 0v3.975a.977.977 0 001.953 0zM28.399 33.727v-5.862a.977.977 0 00-1.954 0v5.862a.977.977 0 001.954 0z" fill="#000"/></svg>