<svg width="50" height="50" fill="none" xmlns="http://www.w3.org/2000/svg"><path d="M25 .977a3.887 3.887 0 00-3.887 3.887h7.774A3.887 3.887 0 0025 .977z" fill="#573F35"/><path d="M42.858 35.932H15.09c-.766 0-1.387-.62-1.387-1.387V9.301c0-.766.621-1.387 1.387-1.387h27.767c.766 0 1.387.621 1.387 1.387v25.244c0 .766-.621 1.387-1.387 1.387z" fill="#FFA400"/><path d="M42.605 3.887h-12.84A4.872 4.872 0 0025 0a4.872 4.872 0 00-4.765 3.887H7.395A2.62 2.62 0 004.78 6.504v27.789a2.62 2.62 0 002.616 2.616h12.198L15.63 48.712a.977.977 0 001.852.622l4.17-12.425h6.694l4.17 12.425a.977.977 0 001.852-.622L30.407 36.91h12.198a2.62 2.62 0 002.616-2.616V6.503a2.62 2.62 0 00-2.616-2.616zM25 1.953c1.263 0 2.34.808 2.742 1.934h-5.484A2.916 2.916 0 0125 1.953zm18.268 32.34a.664.664 0 01-.663.663h-2.55V21.034a.977.977 0 00-1.954 0v13.922h-3.004V24.021a.977.977 0 00-1.953 0v10.935H30.4v-7.74a.977.977 0 00-1.953 0v7.74h-2.472V24.734a.977.977 0 00-1.953 0v10.222h-2.835v-5.373a.977.977 0 00-1.953 0v5.373h-2.268v-4.979a.977.977 0 00-1.953 0v4.979h-2.615v-3.842a.977.977 0 00-1.953 0v3.842H7.395a.664.664 0 01-.663-.663V6.503c0-.365.297-.662.663-.662h35.21c.365 0 .663.297.663.663v27.789z" fill="#000"/><path d="M40.05 10.438l-.006-.04c-.003-.018-.005-.037-.009-.055l-.01-.046-.013-.047c-.004-.015-.01-.03-.015-.044l-.017-.046-.019-.04-.022-.047-.022-.036-.027-.046-.028-.037-.03-.04a.988.988 0 00-.055-.06l-.009-.01-.01-.01a.967.967 0 00-.061-.055c-.012-.01-.025-.018-.037-.027l-.04-.03c-.014-.01-.028-.017-.043-.026l-.039-.023c-.014-.008-.029-.014-.043-.021l-.044-.02-.041-.015-.05-.017-.04-.01c-.017-.005-.034-.01-.052-.013l-.046-.007-.048-.008a.999.999 0 00-.079-.003l-.017-.001h-4.219a.977.977 0 000 1.953h1.861l-8.108 8.108-2.129-2.129a.977.977 0 00-1.38 0l-7.048 7.047-2.104-2.104a.977.977 0 00-1.38 0l-3.564 3.564a.977.977 0 001.38 1.381l2.874-2.873 2.104 2.104a.977.977 0 001.38 0l7.047-7.047 2.13 2.129a.976.976 0 001.38 0l8.799-8.8v1.862a.977.977 0 001.953 0v-4.218a.925.925 0 00-.005-.098zM11.697 11.51a.977.977 0 100-1.952.977.977 0 000 1.953zM11.697 15.492a.977.977 0 100-1.953.977.977 0 000 1.953zM11.697 19.474a.977.977 0 100-1.953.977.977 0 000 1.953z" fill="#000"/></svg>