<svg width="50" height="50" fill="none" xmlns="http://www.w3.org/2000/svg"><path d="M39.063 34.845v4.999l-5.47 3.594 1.563 2.344 7.032-4.375v-6.562h-3.126z" fill="#fff"/><path d="M25 2.344A17.969 17.969 0 007.031 20.312v5.47h4.688v-5.47a13.281 13.281 0 1126.562 0v5.47h4.688v-5.47A17.969 17.969 0 0025 2.345z" fill="#FFA400"/><path d="M7.031 21.564h1.563v14.062H7.03a4.687 4.687 0 01-4.687-4.687V26.25a4.688 4.688 0 014.687-4.688zM42.969 35.626h-1.563V21.564h1.563a4.687 4.687 0 014.687 4.687v4.688a4.687 4.687 0 01-4.687 4.687z" fill="#573F35"/><path d="M34.722 41.623l-2.6 1.73a2.343 2.343 0 102.597 3.9l2.6-1.73a2.343 2.343 0 00-2.597-3.9zM14.844 23.907a3.906 3.906 0 00-7.813 0v9.375a3.906 3.906 0 107.813 0v-9.375zM35.156 33.282a3.906 3.906 0 107.813 0v-9.375a3.906 3.906 0 00-7.813 0v9.375z" fill="#FFA400"/><path d="M32.031 32.031v2.344l-3.125-2.344h-9.082a1.855 1.855 0 01-1.855-1.855v-5.664a1.855 1.855 0 011.855-1.856h10.352a1.856 1.856 0 011.855 1.856v7.52z" fill="#fff"/><path d="M43.75 20.839v-.526c0-10.34-8.411-18.75-18.75-18.75S6.25 9.973 6.25 20.313v.526a5.476 5.476 0 00-4.688 5.412v4.687a5.475 5.475 0 005.47 5.469h.415a4.685 4.685 0 008.178-3.125v-9.375a4.696 4.696 0 00-3.098-4.41 12.5 12.5 0 0124.946 0 4.695 4.695 0 00-3.098 4.41v9.375a4.694 4.694 0 003.906 4.621v1.52l-1.657 1.089a3.114 3.114 0 00-2.312.467l-2.6 1.732a3.127 3.127 0 00-.01 5.197 3.125 3.125 0 003.473.005l2.601-1.731a3.113 3.113 0 001.318-1.93L42.6 42.07a.781.781 0 00.369-.664v-5a5.475 5.475 0 005.468-5.468v-4.687a5.476 5.476 0 00-4.687-5.412zM6.506 34.809a3.912 3.912 0 01-3.381-3.87V26.25a3.911 3.911 0 013.381-3.87 4.666 4.666 0 00-.256 1.526v9.375c0 .52.087 1.035.256 1.526zM36.91 44.88l-2.601 1.732a1.563 1.563 0 01-1.732-2.601l2.601-1.732a1.563 1.563 0 011.732 2.6zM14.063 23.907v9.375a3.125 3.125 0 11-6.25 0v-9.375a3.125 3.125 0 016.25 0zm27.343 17.065l-2.435 1.516a3.101 3.101 0 00-.754-1.153l1.275-.838a.781.781 0 00.352-.653v-1.941a4.651 4.651 0 001.562-.564v3.633zm.782-7.69a3.125 3.125 0 11-6.25 0v-9.375a3.125 3.125 0 116.25 0v9.375zm0-12.865a4.668 4.668 0 00-3.126-1.198l-.042.002a14.063 14.063 0 00-28.04 0l-.043-.002a4.668 4.668 0 00-3.124 1.198v-.105c0-9.477 7.71-17.187 17.187-17.187s17.188 7.71 17.188 17.188v.104zm4.687 10.521a3.911 3.911 0 01-3.381 3.87c.17-.49.256-1.007.256-1.526v-9.375c0-.52-.087-1.035-.256-1.526a3.91 3.91 0 013.381 3.87v4.687z" fill="#000"/><path d="M28.646 32.813L31.562 35a.78.78 0 001.25-.625v-9.863a2.64 2.64 0 00-2.636-2.637H19.824a2.64 2.64 0 00-2.637 2.637v5.664a2.64 2.64 0 002.637 2.637h8.822zm-9.896-2.637v-5.664a1.075 1.075 0 011.074-1.075h10.352a1.075 1.075 0 011.074 1.075v8.3l-1.875-1.406a.78.78 0 00-.469-.156h-9.082a1.075 1.075 0 01-1.074-1.074z" fill="#000"/><path d="M21.875 28.125a.781.781 0 100-1.562.781.781 0 000 1.562zM25 28.125a.781.781 0 100-1.562.781.781 0 000 1.562zM28.125 28.125a.781.781 0 100-1.562.781.781 0 000 1.562zM10.156 23.438v.78a.781.781 0 001.563 0v-.78a.781.781 0 00-1.563 0zM10.938 26.563a.781.781 0 00-.782.78v4.688a.781.781 0 001.563 0v-4.687a.781.781 0 00-.781-.782z" fill="#000"/></svg>