<svg width="50" height="50" fill="none" xmlns="http://www.w3.org/2000/svg"><path d="M31.091 8.906l-2.464 2.401a13.676 13.676 0 01-6.591 3.55l2.392 10.527c2.492-.551 5.087-.4 7.497.434l3.268 1.133-4.102-18.045zM25.63 37.615l-2.726-11.894-6.098 1.348 2.726 11.895 6.099-1.349z" fill="#fff"/><path d="M26.563 29.142h-6.25l-.247-.244a4.524 4.524 0 00-3.177-1.297h-.184a4.524 4.524 0 00-3.177 1.297l-.014.014a7.474 7.474 0 00-2.154 4.25l-.422 2.915-8.594 10.017h12.5l4.018-4.623h5.357a1.552 1.552 0 001.562-1.542 1.552 1.552 0 00-1.562-1.54H25a1.552 1.552 0 001.563-1.541A1.552 1.552 0 0025 35.306h.781a1.552 1.552 0 001.563-1.54 1.552 1.552 0 00-1.563-1.542h.782a1.552 1.552 0 001.562-1.54 1.551 1.551 0 00-1.563-1.542z" fill="#FFA400"/><path d="M16.806 27.07l-.763.169c-2.947.651-5.871-1.177-6.532-4.083-.661-2.907 1.192-5.792 4.14-6.444l.762-.168 2.393 10.526z" fill="#fff"/><path d="M24.429 25.384l-7.623 1.686-2.393-10.527 7.623-1.686 2.393 10.527zM37.06 28.118a1.563 1.563 0 01-1.866-1.167L31.091 8.906a1.54 1.54 0 011.183-1.841 1.562 1.562 0 011.867 1.167l4.102 18.045a1.541 1.541 0 01-1.183 1.84z" fill="#573F35"/><path d="M2.344 46.875h12.5a.782.782 0 00.59-.269l3.784-4.354h5a2.336 2.336 0 002.345-2.323 2.29 2.29 0 00-.296-1.129 2.318 2.318 0 001.077-1.953c0-.395-.102-.784-.296-1.129a2.318 2.318 0 001.077-1.953c0-.395-.102-.784-.296-1.129a2.318 2.318 0 00-1.267-4.276h-2.257l-.465-2.046.758-.167c2.35-.52 4.798-.379 7.072.41l2.913 1.01a2.351 2.351 0 002.646 1.314 2.327 2.327 0 001.8-1.874c.053-.3.044-.607-.024-.903L34.902 8.06a2.352 2.352 0 00-4.27-.725 2.29 2.29 0 00-.36 1.28l-2.19 2.133a12.883 12.883 0 01-6.215 3.348l-8.385 1.854a6.205 6.205 0 00-3.933 2.75 6.075 6.075 0 00-.802 4.622v.005l.001.002a6.22 6.22 0 004.641 4.65c-.143.114-.28.236-.41.365l-.014.013a8.306 8.306 0 00-2.379 4.694l-.39 2.69-8.445 9.845a.782.782 0 00.593 1.29zM31.95 8.171a.775.775 0 01.666-.362.777.777 0 01.762.595L37.48 26.45a.737.737 0 01-.098.562.775.775 0 01-.492.343.782.782 0 01-.936-.578L31.853 8.733a.74.74 0 01.098-.562zm-2.78 3.696l1.468-1.429 3.481 15.314-1.938-.672a14.566 14.566 0 00-7.159-.607l-1.798-7.912-.258-1.131a14.428 14.428 0 006.205-3.563zm-7.725 3.921l2.047 9.003-6.098 1.348-2.046-9.002 6.097-1.349zm1.257 12.572h-2.07l-.019-.018a5.277 5.277 0 00-1.42-1l3.12-.69.39 1.708zm-9.491-2.064l.2-.045a.781.781 0 10-.337-1.525l-1.525.337a.788.788 0 00-.14.046 4.57 4.57 0 01-.896-1.376l2.215-.49a.78.78 0 10-.338-1.525l-2.225.492c-.03-.548.04-1.097.209-1.62a.776.776 0 00.146-.017l1.524-.337a.781.781 0 00-.337-1.525l-.223.049a4.672 4.672 0 012.335-1.286h.003l2.047 9.002a4.733 4.733 0 01-2.658-.18zm-1.681 10.29a.781.781 0 00.18-.397l.422-2.915a6.736 6.736 0 011.93-3.807l.014-.012a3.718 3.718 0 012.627-1.073h.185a3.718 3.718 0 012.628 1.072l.247.244a.78.78 0 00.549.225h6.25a.76.76 0 110 1.52h-.782a.782.782 0 000 1.562.76.76 0 110 1.52H25a.781.781 0 100 1.562.759.759 0 01.551 1.305.761.761 0 01-.551.215h-.781a.782.782 0 000 1.563.761.761 0 110 1.52h-5.357a.78.78 0 00-.59.268l-3.784 4.355H4.043l7.487-8.728zM39.077 14.846a.78.78 0 00.918.615l7.813-1.54a.781.781 0 00-.303-1.534l-7.813 1.541a.78.78 0 00-.615.918zM38.471 9.81a.782.782 0 001.102.082l6.25-5.394a.78.78 0 10-1.021-1.183l-6.25 5.394a.781.781 0 00-.081 1.101zM47.878 21.42l-7.031-2.081a.781.781 0 10-.444 1.498l7.032 2.08a.781.781 0 00.443-1.498z" fill="#000"/></svg>