<svg width="50" height="50" fill="none" xmlns="http://www.w3.org/2000/svg"><g clip-path="url(#clip0)"><path d="M25 8.778c8.96 0 16.223 7.263 16.223 16.223 0 8.96-7.264 16.223-16.223 16.223-8.96 0-16.224-7.263-16.224-16.223 0-8.96 7.264-16.223 16.224-16.223z" fill="#FFA400"/><path d="M25 13.033c5.433 0 9.84 5.359 9.84 11.968 0 6.61-4.407 11.968-9.84 11.968-6.61 0-11.969-5.358-11.969-11.968S18.39 13.033 25 13.033z" fill="#fff"/><path d="M.798 14.628v2.127a3.19 3.19 0 001.596 2.764v20.109a1.596 1.596 0 003.191 0v-20.11a3.19 3.19 0 001.596-2.763v-2.127H.798z" fill="#573F35"/><path d="M49.201 26.064v3.191l-1.596 2.927-1.595-2.927V24.47l3.191 1.595z" fill="#CF8A17"/><path d="M49.201 29.255V39.63a1.596 1.596 0 01-3.191 0V29.255H49.2z" fill="#FFA400"/><path d="M46.809 8.777a2.394 2.394 0 00-2.394 2.393v12.5a2.394 2.394 0 002.394 2.394h2.393V11.17a2.394 2.394 0 00-2.393-2.393z" fill="#573F35"/><path d="M25 12.234c-7.039 0-12.765 5.727-12.765 12.766 0 2.825.904 5.502 2.616 7.743a.798.798 0 101.268-.969A11.066 11.066 0 0113.83 25c0-6.16 5.011-11.17 11.17-11.17 6.16 0 11.17 5.01 11.17 11.17S31.16 36.17 25 36.17c-2.471 0-4.814-.791-6.774-2.289a.798.798 0 00-.969 1.268A12.65 12.65 0 0025 37.766c7.04 0 12.767-5.727 12.767-12.766 0-7.04-5.727-12.766-12.767-12.766z" fill="#000"/><path d="M25 7.979C15.615 7.979 7.98 15.614 7.98 25c0 9.386 7.635 17.021 17.02 17.021 9.386 0 17.022-7.636 17.022-17.021 0-9.386-7.636-17.021-17.021-17.021zm0 32.446c-8.505 0-15.425-6.92-15.425-15.425 0-8.506 6.92-15.426 15.425-15.426 8.506 0 15.426 6.92 15.426 15.426S33.506 40.425 25 40.425zM7.18 7.979a.798.798 0 00-.797.798v5.053H4.787V8.777a.798.798 0 10-1.595 0v5.053H1.595V8.777a.798.798 0 10-1.596 0v7.978c0 1.259.601 2.443 1.596 3.19v19.683a2.396 2.396 0 002.393 2.393 2.396 2.396 0 002.394-2.393V19.946a4.004 4.004 0 001.596-3.19v-7.98a.798.798 0 00-.798-.797zm-1.995 10.85a.798.798 0 00-.398.69v20.109a.799.799 0 01-1.595 0v-20.11a.798.798 0 00-.399-.69 2.403 2.403 0 01-1.197-2.073v-1.33h4.787v1.33c0 .852-.459 1.646-1.198 2.073zM46.809 7.979a3.195 3.195 0 00-3.192 3.191v12.5a3.195 3.195 0 003.192 3.192h1.595v12.766a.799.799 0 01-1.596 0V29.255a.798.798 0 10-1.596 0v10.373a2.396 2.396 0 002.394 2.393A2.396 2.396 0 0050 39.628V11.17a3.195 3.195 0 00-3.191-3.191zm1.595 17.287h-1.596c-.88 0-1.595-.716-1.595-1.596v-12.5c0-.88.716-1.596 1.596-1.596.88 0 1.595.716 1.595 1.596v14.096z" fill="#000"/></g><defs><clipPath id="clip0"><path fill="#fff" d="M0 0h50v50H0z"/></clipPath></defs></svg>