<svg width="50" height="50" fill="none" xmlns="http://www.w3.org/2000/svg"><path d="M49.023 10.093h-27.64v8.295h27.64v-8.295z" fill="#573F35"/><path d="M37.074 16.89l-4.023-6.927v1.567-1.566l-1.014-1.747a5.15 5.15 0 01-.166-.309 2.993 2.993 0 00-1.812 2.75v2.596c0 .409.108.81.313 1.164l2.269 3.905c.268.463.41.988.41 1.524v1.417h4.935v-.99a6.74 6.74 0 00-.912-3.384z" fill="#fff"/><path d="M44.56 17.415c.38-1.392.574-2.829.574-4.272V4.939a1.44 1.44 0 00-2.879 0v1.44V4.466a1.534 1.534 0 00-3.068 0v1.837-3.049c0-.73-.515-1.338-1.2-1.482v.03-.03a1.515 1.515 0 00-1.83 1.482v3.162-2.234a1.553 1.553 0 10-3.106 0v5.782l4.023 6.926a6.738 6.738 0 01.912 3.385v.99h5.52l1.053-3.85z" fill="#FFA400"/><path d="M33.051 9.964V7.666c-.419 0-.818.087-1.18.242.052.105.107.208.166.31l1.014 1.746z" fill="#FFA400"/><path d="M45.134 21.265h-7.992v27.64h7.992v-27.64z" fill="#573F35"/><path d="M31.558 32.64c-.463.27-.988.411-1.524.411h-1.417v10.454l3.849 1.055c.407.111.818.204 1.232.284V31.398l-2.14 1.243z" fill="#fff"/><path d="M44.942 45.134a1.44 1.44 0 000-2.879h-1.44H45.415a1.534 1.534 0 100-3.068h-1.837 3.049a1.515 1.515 0 000-3.03h-3.163H45.7a1.553 1.553 0 100-3.106h-7.348 3.864a2.992 2.992 0 00-2.993-2.992h-2.595c-.409 0-.81.108-1.165.314l-1.764 1.025v13.446c1.001.191 2.019.29 3.04.29h8.204z" fill="#FFA400"/><path d="M28.617 36.165H.977v8.969h27.64v-8.969z" fill="#573F35"/><path d="M9.434 30.99l.618-2.256H6.495L5.44 32.583a16.174 16.174 0 00-.575 4.272v8.204a1.44 1.44 0 102.879 0v-1.44V45.532c0 .586.328 1.094.81 1.353v-9.361c0-2.208.296-4.405.879-6.535z" fill="#fff"/><path d="M9.279 47.066c.847 0 1.534-.687 1.534-1.534v-1.837 3.049a1.515 1.515 0 002.145 1.377v-.252.252c.522-.24.885-.765.885-1.377v-3.163 2.235a1.553 1.553 0 003.106 0v-7.348 3.864a2.992 2.992 0 002.992-2.993v-2.595c0-.409-.108-.81-.314-1.164l-2.268-3.905a3.034 3.034 0 01-.41-1.524v-1.417H10.05l-.617 2.255a24.738 24.738 0 00-.879 6.535v9.36c.216.116.462.182.724.182z" fill="#FFA400"/><path d="M18.389 1.095h-8.337v27.64h8.337V1.095z" fill="#573F35"/><path d="M14.053 16.949H7.856c0 1.652 1.355 2.992 3.026 2.992h2.623c.414 0 .82-.108 1.178-.314l.544-.312a2.975 2.975 0 01-1.175-2.366zM8.96 15.396c0-.858.702-1.553 1.57-1.553h-.94a1.524 1.524 0 01-1.53-1.515c0-.837.685-1.515 1.53-1.515h1.226a1.543 1.543 0 01-1.55-1.534c0-.848.694-1.534 1.55-1.534h.48a1.447 1.447 0 01-1.456-1.44c0-.795.651-1.439 1.455-1.439H5.1c-.804 0-1.455.644-1.455 1.44 0 .794.651 1.439 1.455 1.439h1.455H4.62c-.856 0-1.55.686-1.55 1.534 0 .847.694 1.534 1.55 1.534h1.858-3.083c-.846 0-1.532.678-1.532 1.515 0 .836.686 1.515 1.532 1.515H6.593h-2.26c-.867 0-1.57.695-1.57 1.553 0 .857.703 1.553 1.57 1.553h6.196c-.867 0-1.57-.696-1.57-1.553z" fill="#fff"/><path d="M20.172 16.949h1.433V6.495L17.713 5.44a16.523 16.523 0 00-4.32-.574h-2.098c-.803 0-1.455.644-1.455 1.44 0 .794.652 1.439 1.455 1.439h1.456-1.935c-.856 0-1.55.686-1.55 1.534 0 .847.694 1.534 1.55 1.534h1.858-3.083c-.846 0-1.532.678-1.532 1.515 0 .836.686 1.515 1.532 1.515H12.789h-2.26c-.867 0-1.57.695-1.57 1.553 0 .857.703 1.553 1.57 1.553h7.43-3.906c0 .962.46 1.818 1.174 2.366l3.404-1.956c.468-.269 1-.41 1.54-.41z" fill="#FFA400"/><path d="M49.023 17.412h-3.455c.358-1.395.542-2.829.542-4.27v-7.3h2.913a.977.977 0 100-1.953H45.87a2.419 2.419 0 00-3.28-1.098 2.505 2.505 0 00-2.71-.69 2.491 2.491 0 00-4.273-.24 2.533 2.533 0 00-3.516 2.03H21.384a.977.977 0 00-.977.975v.349l-1.041-.285V1.106a.977.977 0 10-1.953 0V4.4a17.154 17.154 0 00-4.15-.512h-7.42V1.095a.977.977 0 10-1.952 0V4.19a2.417 2.417 0 00-.98 3.219 2.505 2.505 0 00-.692 2.71 2.491 2.491 0 00-.24 4.272 2.533 2.533 0 001.912 3.5v10.844c0 .539.437.976.976.976h.349l-.253.923H.977a.977.977 0 100 1.953h3.455a17.153 17.153 0 00-.542 4.27v7.3H.977a.977.977 0 000 1.953H4.13a2.419 2.419 0 003.28 1.098 2.505 2.505 0 002.71.69 2.491 2.491 0 004.273.24c.307.135.647.209 1.003.209 1.296 0 2.367-.98 2.512-2.237h10.71c.539 0 .976-.438.976-.977v-.349l1.041.285v3.835a.977.977 0 101.953 0V45.6c1.357.338 2.751.512 4.15.512h7.42v2.794a.977.977 0 101.952 0V45.81a2.418 2.418 0 00.98-3.219 2.505 2.505 0 00.692-2.71 2.491 2.491 0 00.24-4.273 2.533 2.533 0 00-1.912-3.5V21.265a.977.977 0 00-.976-.976h-.349l.253-.923h3.985a.977.977 0 100-1.953zM6.535 12.866H3.372a.54.54 0 010-1.077h3.05a.977.977 0 100-1.953H4.583a.558.558 0 010-1.115h1.913a.977.977 0 100-1.953h-1.44a.463.463 0 010-.925h8.204c1.356 0 2.707.181 4.014.54l3.131.857v8.732h-.44c-.708 0-1.404.188-2.015.543l-3.905 2.268a1.343 1.343 0 01-.674.182h-2.595c-.757 0-1.419-.42-1.763-1.04h2.634a.977.977 0 100-1.953H4.3a.577.577 0 010-1.152h2.235a.977.977 0 000-1.954zm9.438 32.952a.577.577 0 01-1.153 0v-2.234a.977.977 0 00-1.953 0v3.162a.54.54 0 01-1.078 0v-3.049a.977.977 0 00-1.953 0v1.837a.558.558 0 01-1.115 0v-1.913a.977.977 0 00-1.953 0v1.44a.463.463 0 01-.925 0v-8.204c0-1.356.181-2.706.54-4.014l.857-3.13h8.733v.44c0 .707.187 1.404.542 2.015l2.268 3.904c.12.205.182.438.182.674v2.595c0 .758-.42 1.419-1.04 1.763V38.47a.977.977 0 00-1.952 0v7.348zm11.668-1.66h-9.715v-.97a3.976 3.976 0 002.992-3.847v-2.595c0-.58-.154-1.153-.446-1.655l-2.268-3.904a2.06 2.06 0 01-.279-1.034v-.44h.463c.54 0 .977-.438.977-.977v-6.129a.977.977 0 10-1.953 0v5.152H5.842v-9.834H6.93a3.976 3.976 0 003.847 2.993h2.595c.58 0 1.153-.154 1.655-.446l3.905-2.268a2.06 2.06 0 011.033-.279h.441v.463c0 .54.437.977.977.977h6.834a.977.977 0 000-1.953H22.36V5.841h9.715v.97a3.976 3.976 0 00-2.992 3.847v2.595c0 .58.154 1.153.446 1.655l2.268 3.904c.182.314.279.671.279 1.034v.44h-.463a.977.977 0 00-.977.977v6.93a.977.977 0 001.953 0v-5.953h11.569v9.834H43.07a3.976 3.976 0 00-3.847-2.993h-2.595a3.3 3.3 0 00-1.655.446l-3.904 2.268a2.06 2.06 0 01-1.034.279h-.441v-.463a.977.977 0 00-.977-.977h-7.063a.977.977 0 100 1.954h6.087v11.568zm15.824-7.024h3.163a.54.54 0 010 1.077h-3.05a.977.977 0 100 1.953h1.838a.558.558 0 010 1.115h-1.913a.977.977 0 000 1.953h1.44a.463.463 0 010 .925h-8.204c-1.356 0-2.707-.181-4.014-.54l-3.131-.857v-8.732h.44c.708 0 1.404-.188 2.015-.543l3.905-2.268c.204-.119.437-.181.674-.181h2.595c.757 0 1.419.42 1.763 1.039h-2.634a.977.977 0 100 1.953H45.7a.577.577 0 010 1.153h-2.235a.977.977 0 000 1.953zm-9.438-16.846v-.441c0-.707-.187-1.404-.542-2.015l-2.268-3.904a1.343 1.343 0 01-.182-.674v-2.595c0-.758.42-1.419 1.04-1.763v2.634a.977.977 0 101.952 0V4.182a.577.577 0 011.153 0v2.235a.977.977 0 101.953 0V3.254a.54.54 0 011.077 0v3.049a.977.977 0 001.954 0V4.466a.558.558 0 011.114 0v1.913a.977.977 0 101.953 0v-1.44a.463.463 0 01.926 0v8.204c0 1.356-.181 2.706-.54 4.014l-.857 3.13h-8.732z" fill="#000"/><path d="M15.116 26.578a.977.977 0 100-1.953.977.977 0 000 1.953zM15.116 23.321a.977.977 0 100-1.953.977.977 0 000 1.953zM25.662 35.726a.977.977 0 100-1.954.977.977 0 000 1.954zM22.406 35.726a.977.977 0 100-1.954.977.977 0 000 1.954zM34.882 25.196a.977.977 0 100-1.953.977.977 0 000 1.953zM34.882 28.452a.977.977 0 100-1.953.977.977 0 000 1.953zM24.49 16.54a.977.977 0 100-1.953.977.977 0 000 1.953zM27.745 16.54a.977.977 0 100-1.953.977.977 0 000 1.953z" fill="#000"/></svg>