<svg width="50" height="50" fill="none" xmlns="http://www.w3.org/2000/svg"><path d="M38.882 35.913h.426c2.17-.005 3.925-1.715 3.92-3.82l-.017-8.345c-.009-3.967-2.745-7.31-6.484-8.363-3.754 1.058-6.494 4.421-6.486 8.401l.018 8.346c.005 2.105 1.767 3.807 3.937 3.802l.571-.001.028 13.09 4.115-.01-.028-13.1zM20.023 35.923c2.17 0 3.93-1.706 3.93-3.81v-8.346c0-3.976-2.742-7.33-6.491-8.383-3.75 1.053-6.491 4.407-6.491 8.383v8.346c0 2.104 1.759 3.81 3.929 3.81h.57v13.1h4.128v-13.1h.425zM35.719 7.067a4.191 4.191 0 00-.001 7.565 4.191 4.191 0 000-7.565zM16.487 7.066a4.191 4.191 0 000 7.565 4.191 4.191 0 000-7.565z" fill="#573F35"/><path d="M43.129 33.994a.977.977 0 100-1.953.977.977 0 000 1.953zM5.954 33.994a.977.977 0 100-1.953.977.977 0 000 1.953z" fill="#000"/><path d="M23.692 34.167c-2.461 0-4.456-1.935-4.456-4.321V20.38c0-4.645 3.298-8.541 7.747-9.608-.787-.189-1.61-.29-2.458-.29-5.636 0-10.206 4.431-10.206 9.898v9.465c0 2.386 1.995 4.32 4.456 4.32h.647v14.857h4.917V34.167h-.647z" fill="#fff"/><path d="M30.276 34.167c2.46 0 4.455-1.935 4.455-4.321V20.38c0-4.645-3.298-8.54-7.747-9.608-4.45 1.067-7.748 4.963-7.748 9.608v9.465c0 2.386 1.995 4.321 4.456 4.321h.647v14.856h5.454V34.167h.483zM26.105 1.367a4.754 4.754 0 000 8.726 4.754 4.754 0 000-8.726z" fill="#FFA400"/><path d="M48.271 48.047h-8.386l-.051-24.002a.977.977 0 00-.977-.974h-.002a.977.977 0 00-.975.978l.051 23.998h-2.836l-.025-10.679a.977.977 0 00-.977-.974h-.002a.977.977 0 00-.975.979l.025 10.674H30.77V35.12c2.764-.245 4.938-2.517 4.938-5.275V20.38a10.6 10.6 0 00-.93-4.343 8.085 8.085 0 015.105 2.247c1.512 1.46 2.347 3.4 2.351 5.466l.018 5.558a.977.977 0 00.977.974h.003a.977.977 0 00.974-.98l-.018-5.557c-.006-2.598-1.053-5.036-2.948-6.866a9.982 9.982 0 00-3.769-2.29 5.153 5.153 0 001.609-3.752 5.174 5.174 0 00-5.168-5.157H33.9a5.184 5.184 0 00-2.383.587.977.977 0 10.906 1.73 3.218 3.218 0 014.703 2.843 3.218 3.218 0 01-3.208 3.223.97.97 0 00-.124.009l-.156.007a11.115 11.115 0 00-5.649-4.044 5.717 5.717 0 001.957-4.306c0-3.16-2.57-5.73-5.73-5.73-3.16 0-5.73 2.57-5.73 5.73a5.72 5.72 0 002.133 4.456 11.106 11.106 0 00-5.204 3.888 10.397 10.397 0 00-.682-.008c-.018-.001-.035-.003-.053-.003a3.218 3.218 0 01-3.215-3.215 3.218 3.218 0 014.747-2.826.977.977 0 00.933-1.716 5.177 5.177 0 00-2.465-.626 5.174 5.174 0 00-5.168 5.168c0 1.552.688 2.945 1.775 3.893-3.693 1.424-6.311 4.933-6.311 9.026v5.539a.977.977 0 001.953 0v-5.54c0-4.05 3.234-7.382 7.339-7.72a10.6 10.6 0 00-.927 4.335v9.465c0 2.813 2.26 5.12 5.103 5.287v12.913h-2.66V37.37a.977.977 0 00-1.954 0v10.677h-2.4v-23.99a.977.977 0 00-1.954 0v23.99H1.729a.977.977 0 100 1.953H48.27a.977.977 0 100-1.953zM24.217 1.953a3.78 3.78 0 013.776 3.776 3.78 3.78 0 01-3.776 3.776A3.78 3.78 0 0120.44 5.73a3.78 3.78 0 013.777-3.776zm-8.921 27.892V20.38c0-1.69.492-3.336 1.422-4.759 1.704-2.606 4.623-4.162 7.807-4.162 3.19 0 6.111 1.56 7.815 4.173a8.675 8.675 0 011.414 4.748v9.465c0 1.683-1.3 3.078-2.984 3.31V20.71a.977.977 0 10-1.954 0v27.337h-3.479v-13.59a.977.977 0 00-1.953 0v13.59h-2.985V20.71a.977.977 0 10-1.954 0v12.465c-1.764-.16-3.15-1.592-3.15-3.33z" fill="#000"/></svg>