<svg height="512" fill="#e39e33" width="512" xmlns="http://www.w3.org/2000/svg"><path d="M496.028 324.846A182.526 182.526 0 00322.185 142.57l-1.538-.073a182.209 182.209 0 00-183.51 129.87l-7.085 23.618-64.938 6.687a45.729 45.729 0 00-40.893 31.366 36.467 36.467 0 0044.628 46.61l105.75-30.214a122.454 122.454 0 0086.005 16.132l122.67-22.303 102.98 23.535a8 8 0 009.783-7.801zM381.345 172.83a112.492 112.492 0 0146.565 96.854l-3.22 67.632-77.673-17.752 21.527-68.885a164.05 164.05 0 004.288-81.382c1.363.52 2.723 1.053 4.075 1.61 1.494.615 2.967 1.267 4.438 1.923zM250.993 297.62a263.42 263.42 0 00-62.746-6.6l6.564-21.88a153.5 153.5 0 01140.667-109.32 165.767 165.767 0 0119.636 3.83 148.158 148.158 0 01-1.842 82.257l-21.9 70.083zm-98.53-20.654a166.25 166.25 0 0199.774-107.652 169.499 169.499 0 00-72.753 95.228l-8.182 27.275a266.13 266.13 0 00-6.173.556l-17.84 1.837zm-88.01 88.299A20.478 20.478 0 0139.4 339.098a29.821 29.821 0 0126.758-20.46h29.797a106.966 106.966 0 0161.988 19.915zm193.29-14.44a106.524 106.524 0 01-85.437-21.491 122.477 122.477 0 00-31.921-18.328l26.383-2.717a247.46 247.46 0 0180.66 4.928l96.216 21.99zm182.793-9.887l3.357-70.493a128.783 128.783 0 00-13.642-64.29 166.43 166.43 0 0149.777 118.695l.006 25.115z" data-name="Out line"/></svg>