<svg width="90" height="102" fill="none" xmlns="http://www.w3.org/2000/svg"><g clip-path="url(#clip0)"><path d="M73.308 50.005a54.295 54.295 0 007.968-26.486c.153-3.13-4.523-3.21-4.583-.078a49.561 49.561 0 01-7.276 24.183C60.522 62.16 44.872 71.067 28.133 71.211l.393-11.547a2.109 2.109 0 00-3.177-1.907L1.958 71.25c-1.414.815-1.483 2.841-.126 3.704l22.445 14.27c1.013.643 2.367.306 2.993-.746.19-.32.297-.682.31-1.051l.396-11.589c18.37-.118 35.573-9.886 45.332-25.833zM23.43 83.541L7.153 73.19l16.964-9.786-.686 20.136zm-.959-14.147c.641-1.041-.524-2.223-1.56-1.58l-7.49 4.502c-1.365.785-.187 2.82 1.147 1.983l7.492-4.503c.169-.098.31-.236.412-.402z" fill="#FFA400"/></g><defs><clipPath id="clip0"><path fill="#fff" transform="rotate(121.463 37.276 38.725)" d="M0 0h87v52H0z"/></clipPath></defs></svg>