<svg width="101" height="96" fill="none" xmlns="http://www.w3.org/2000/svg"><g clip-path="url(#clip0)"><path d="M23.163 56.46A54.296 54.296 0 016.785 34.172c-1.192-2.898 3.187-4.538 4.293-1.608a49.561 49.561 0 0014.954 20.35c13.249 10.718 30.978 13.87 46.8 8.4l-4.238-10.749a2.109 2.109 0 012.355-2.86l26.56 4.88c1.604.295 2.347 2.18 1.358 3.447l-16.37 20.963c-.74.945-2.129 1.081-3.07.3a2.201 2.201 0 01-.645-.887L74.53 65.62c-17.35 6.04-36.83 2.598-51.366-9.16zM81.39 71.357l11.873-15.203-19.262-3.54 7.39 18.743zm-3.834-13.651c-.952-.767-.25-2.27.94-2.012l8.567 1.735c1.549.282 1.12 2.594-.417 2.252l-8.567-1.734a1.176 1.176 0 01-.523-.241z" fill="#fff"/></g><defs><clipPath id="clip0"><path fill="#fff" transform="scale(1 -1) rotate(-38.971 -57.128 -20.214)" d="M0 0h87v52H0z"/></clipPath></defs></svg>