<svg xmlns="http://www.w3.org/2000/svg" fill="#de942f" viewBox="0 0 511.999 511.999"><path d="M408.307 32.064h-73.894c-3.139-9.308-11.946-16.032-22.3-16.032h-24.472C280.218 6.047 268.458 0 256 0s-24.218 6.047-31.641 16.032h-24.472c-10.353 0-19.16 6.724-22.3 16.032h-73.894c-17.396 0-31.548 14.152-31.548 31.548v416.839c0 17.396 14.152 31.548 31.548 31.548h304.613c17.396 0 31.548-14.152 31.548-31.548V63.613c.001-17.396-14.151-31.549-31.547-31.549zm-216.952 7.53l.001-.029-.001-.014c.009-4.699 3.833-8.519 8.532-8.519h28.495a7.498 7.498 0 0 0 6.482-3.728C239.349 19.6 247.25 15 256 15s16.651 4.6 21.136 12.305a7.5 7.5 0 0 0 6.482 3.728h28.495c4.705 0 8.532 3.828 8.532 8.532v24.564h-129.29V39.594zm233.5 440.858c0 9.125-7.423 16.548-16.548 16.548H103.693c-9.125 0-16.548-7.423-16.548-16.548V63.613c0-9.125 7.423-16.548 16.548-16.548h72.662v24.564a7.5 7.5 0 0 0 7.5 7.5h144.29a7.5 7.5 0 0 0 7.5-7.5V47.064h72.662c9.125 0 16.548 7.423 16.548 16.548v416.84z"/><path d="M256.08 32.064H256c-4.142 0-7.46 3.358-7.46 7.5 0 4.142 3.398 7.5 7.54 7.5a7.5 7.5 0 0 0 0-15zM400.291 64.129h-40.082a7.5 7.5 0 0 0 0 15h32.582v369.774H119.209V79.129h32.579a7.5 7.5 0 0 0 0-15h-40.079a7.5 7.5 0 0 0-7.5 7.5v384.774a7.5 7.5 0 0 0 7.5 7.5H400.29a7.5 7.5 0 0 0 7.5-7.5V71.629a7.499 7.499 0 0 0-7.499-7.5z"/><path d="M175.839 224.452c-12.976 0-23.532 10.557-23.532 23.532s10.557 23.532 23.532 23.532 23.532-10.557 23.532-23.532-10.557-23.532-23.532-23.532zm0 32.064c-4.705 0-8.532-3.828-8.532-8.532 0-4.704 3.828-8.532 8.532-8.532 4.704 0 8.532 3.828 8.532 8.532 0 4.704-3.828 8.532-8.532 8.532zM175.839 296.597c-12.976 0-23.532 10.557-23.532 23.532s10.557 23.532 23.532 23.532 23.532-10.557 23.532-23.532-10.557-23.532-23.532-23.532zm0 32.064c-4.705 0-8.532-3.828-8.532-8.532 0-4.704 3.828-8.532 8.532-8.532 4.704 0 8.532 3.828 8.532 8.532 0 4.704-3.828 8.532-8.532 8.532zM175.839 368.742c-12.976 0-23.532 10.557-23.532 23.533s10.557 23.532 23.532 23.532 23.532-10.557 23.532-23.532c0-12.977-10.557-23.533-23.532-23.533zm0 32.065c-4.705 0-8.532-3.828-8.532-8.532 0-4.705 3.828-8.533 8.532-8.533 4.704 0 8.532 3.828 8.532 8.533 0 4.704-3.828 8.532-8.532 8.532zM296.081 224.452h-72.145a7.5 7.5 0 0 0 0 15h72.145a7.5 7.5 0 0 0 0-15zM352.193 256.516H223.936a7.5 7.5 0 0 0 0 15h128.258a7.5 7.5 0 1 0-.001-15zM296.081 296.597h-72.145a7.5 7.5 0 0 0 0 15h72.145a7.5 7.5 0 0 0 0-15zM352.193 328.661H223.936a7.5 7.5 0 0 0 0 15h128.258a7.5 7.5 0 1 0-.001-15zM296.081 368.742h-72.145a7.5 7.5 0 0 0 0 15h72.145a7.5 7.5 0 0 0 0-15zM352.194 400.807H223.936a7.5 7.5 0 0 0 0 15h128.258a7.5 7.5 0 0 0 0-15zM352.194 104.209H223.936a7.5 7.5 0 0 0 0 15h128.258a7.5 7.5 0 0 0 0-15zM352.193 176.355H159.807a7.5 7.5 0 0 0 0 15h192.387a7.5 7.5 0 1 0-.001-15zM247.984 136.274h-24.048a7.5 7.5 0 0 0 0 15h24.048a7.5 7.5 0 0 0 0-15zM304.097 136.274h-24.048a7.5 7.5 0 0 0 0 15h24.048a7.5 7.5 0 0 0 0-15zM191.871 104.209h-32.064a7.5 7.5 0 0 0-7.5 7.5v32.065a7.5 7.5 0 0 0 7.5 7.5h32.064a7.5 7.5 0 0 0 7.5-7.5v-32.065a7.5 7.5 0 0 0-7.5-7.5zm-7.5 32.065h-17.064v-17.065h17.064v17.065z"/></svg>