<svg xmlns="http://www.w3.org/2000/svg" fill="#de942f" viewBox="0 0 512 512"><path d="M496.484 208.419h-21.316c-.248 0-.412-.239-.464-.478a222.087 222.087 0 0 0-30.067-72.62c-.121-.188-.194-.475-.004-.666l15.06-15.06c6.049-6.049 6.05-15.893 0-21.943l-45.346-45.346c-6.05-6.05-15.893-6.049-21.943 0l-15.06 15.061c-.191.189-.478.117-.665-.003a222.082 222.082 0 0 0-72.621-30.068c-.237-.052-.477-.215-.477-.463V15.516C303.581 6.96 296.62 0 288.064 0h-64.129c-8.556 0-15.516 6.96-15.516 15.516v21.316c0 .248-.239.412-.478.464a222.105 222.105 0 0 0-72.62 30.067c-.188.122-.474.194-.666.004l-15.06-15.061c-6.05-6.05-15.893-6.049-21.943 0L52.307 97.654c-6.049 6.05-6.049 15.894 0 21.943l15.06 15.06c.19.19.117.478-.003.666a222.064 222.064 0 0 0-30.068 72.621c-.052.237-.215.477-.463.477H15.516C6.96 208.419 0 215.38 0 223.936v64.129c0 8.556 6.96 15.516 15.516 15.516h21.316c.248 0 .412.239.464.478a222.087 222.087 0 0 0 30.067 72.62c.121.188.194.475.004.666l-15.06 15.06c-6.05 6.05-6.05 15.893 0 21.943l45.346 45.346c6.051 6.051 15.894 6.05 21.943 0l15.06-15.06c.19-.19.477-.117.666.003a222.064 222.064 0 0 0 72.621 30.068c.237.052.477.215.477.463v21.316c0 8.556 6.96 15.516 15.516 15.516h64.129c8.556 0 15.516-6.96 15.516-15.516v-21.316c0-.248.239-.412.478-.464a222.087 222.087 0 0 0 72.62-30.067c.189-.121.476-.193.666-.004l15.06 15.06c6.051 6.051 15.894 6.05 21.943 0l45.346-45.346c6.05-6.05 6.05-15.893 0-21.943l-15.06-15.06c-.19-.19-.117-.478.003-.666a222.064 222.064 0 0 0 30.068-72.621c.052-.237.215-.477.463-.477h21.316c8.556 0 15.516-6.96 15.516-15.516v-64.129c0-8.555-6.96-15.516-15.516-15.516zm0 80.161h-21.316c-7.322 0-13.538 5.047-15.117 12.273a207.12 207.12 0 0 1-28.044 67.731c-3.988 6.224-3.158 14.188 2.02 19.365l15.06 15.06a.517.517 0 0 1 0 .73l-45.346 45.346a.516.516 0 0 1-.73 0l-15.06-15.06c-5.178-5.178-13.141-6.008-19.365-2.019a207.144 207.144 0 0 1-67.73 28.043c-7.227 1.58-12.274 7.796-12.274 15.118v21.316a.516.516 0 0 1-.516.516h-64.129a.516.516 0 0 1-.516-.516v-21.316c0-7.322-5.047-13.538-12.273-15.117a207.12 207.12 0 0 1-67.731-28.044c-2.63-1.686-5.571-2.51-8.481-2.51a15.345 15.345 0 0 0-10.884 4.53l-15.06 15.06a.517.517 0 0 1-.73 0L62.914 403.74a.517.517 0 0 1 0-.73l15.06-15.06c5.178-5.177 6.008-13.141 2.019-19.365a207.144 207.144 0 0 1-28.043-67.73c-1.58-7.227-7.796-12.274-15.118-12.274H15.516a.516.516 0 0 1-.516-.516v-64.129c0-.285.231-.516.516-.516h21.316c7.322 0 13.538-5.047 15.117-12.273a207.12 207.12 0 0 1 28.044-67.731c3.988-6.224 3.158-14.188-2.02-19.365l-15.06-15.06a.517.517 0 0 1 0-.73l45.346-45.346a.517.517 0 0 1 .73 0l15.06 15.061c5.177 5.177 13.141 6.008 19.365 2.019a207.144 207.144 0 0 1 67.73-28.043c7.227-1.58 12.274-7.796 12.274-15.118V15.516c0-.285.231-.516.516-.516h64.129c.285 0 .516.231.516.516v21.316c0 7.322 5.047 13.538 12.273 15.117a207.12 207.12 0 0 1 67.731 28.044c6.224 3.988 14.188 3.158 19.365-2.02l15.06-15.061a.516.516 0 0 1 .73 0l45.346 45.346a.517.517 0 0 1 0 .731l-15.06 15.06c-5.178 5.177-6.008 13.141-2.019 19.365a207.144 207.144 0 0 1 28.043 67.73c1.58 7.227 7.796 12.274 15.118 12.274h21.316c.285 0 .516.231.516.516v64.13H497a.516.516 0 0 1-.516.516z"/><path d="M356.49 131.727c-30.505-24.726-68.995-37.278-108.385-35.339C208.434 98.338 171.107 114.893 143 143c-28.108 28.108-44.662 65.437-46.612 105.108-1.936 39.39 10.616 77.882 35.344 108.387a7.484 7.484 0 0 0 5.831 2.778 7.5 7.5 0 0 0 5.822-12.223c-22.4-27.633-33.77-62.509-32.015-98.205 1.767-35.945 16.767-69.768 42.237-95.238 25.469-25.469 59.291-40.469 95.235-42.237 35.7-1.758 70.57 9.613 98.203 32.01a7.5 7.5 0 1 0 9.445-11.653z"/><path d="M380.273 155.511a7.5 7.5 0 0 0-11.652 9.444c22.397 27.633 33.766 62.509 32.01 98.204-1.768 35.944-16.768 69.766-42.237 95.235a145.35 145.35 0 0 1-14.733 12.868v-41.01c0-14.012-9.409-26.486-22.882-30.334l-27.044-7.727a8.567 8.567 0 0 1-6.188-8.205l.001-6.256a56.386 56.386 0 0 0 7.168-5.878c10.886-10.564 16.881-24.734 16.881-39.901V217.69l2.993-5.986a47.813 47.813 0 0 0 5.023-21.279V151.79a7.5 7.5 0 0 0-7.5-7.5h-72.145c-26.236 0-47.581 21.345-47.581 47.581v.447a39.751 39.751 0 0 0 4.177 17.693l3.839 7.679v12.245c0 19.407 9.563 36.82 24.048 47.298v6.754a8.568 8.568 0 0 1-6.188 8.204l-27.043 7.727c-13.472 3.849-22.881 16.323-22.881 30.335v41.017a145.252 145.252 0 0 1-3.389-2.654 7.501 7.501 0 0 0-9.445 11.653c28.457 23.068 63.86 35.54 100.463 35.539 2.634 0 5.279-.065 7.924-.195 39.672-1.95 77-18.504 105.108-46.612 28.107-28.107 44.662-65.434 46.612-105.104 1.937-39.388-10.613-77.88-35.339-108.386zm-164.87 74.424v-14.016a7.496 7.496 0 0 0-.792-3.354l-4.631-9.263a24.68 24.68 0 0 1-2.593-10.985v-.447c0-17.965 14.616-32.581 32.581-32.581h64.645v31.135c0 5.032-1.189 10.07-3.439 14.571l-3.785 7.569a7.496 7.496 0 0 0-.792 3.354v16.032c0 11.075-4.378 21.422-12.327 29.137-7.946 7.711-18.426 11.773-29.524 11.441-21.694-.65-39.343-19.757-39.343-42.593zm58.452 61.733l-6.153 6.153A16.441 16.441 0 0 1 256 302.668a16.443 16.443 0 0 1-11.702-4.847l-6.154-6.154a23.36 23.36 0 0 0 1.27-6.778 52.56 52.56 0 0 0 16.607 2.659c5.704 0 11.272-.864 16.57-2.512a23.323 23.323 0 0 0 1.264 6.632zm54.806 89.605a144.295 144.295 0 0 1-17.064 8.463v-45.557a7.5 7.5 0 0 0-15 0v50.838a144.937 144.937 0 0 1-40.625 5.791 145.037 145.037 0 0 1-40.568-5.785v-50.845a7.5 7.5 0 0 0-15 0v45.562a143.967 143.967 0 0 1-17.064-8.45v-51.036c0-7.35 4.936-13.893 12.002-15.912l27.042-7.727a23.306 23.306 0 0 0 6.486-3.009l4.822 4.822c6.15 6.15 14.229 9.226 22.308 9.226s16.158-3.075 22.308-9.226l4.821-4.821a23.287 23.287 0 0 0 6.485 3.009l27.045 7.727c7.066 2.019 12.002 8.562 12.002 15.912v51.018z"/><path d="M283.402 193.179c-17.416-8.708-50.069-8.808-51.451-8.808a7.5 7.5 0 0 0-.002 15c8.438.005 32.923 1.314 44.745 7.224a7.502 7.502 0 0 0 6.708-13.416z"/></svg>