<svg height="512" fill="#de942f" width="512" xmlns="http://www.w3.org/2000/svg" data-name="Layer 1"><path d="M479 450.714h-14.388V18.308A8.247 8.247 0 0 0 456.446 10H58.711a8.248 8.248 0 0 0-8.167 8.308v432.406H33a8.009 8.009 0 0 0-8 8V494a8.009 8.009 0 0 0 8 8h446a8.009 8.009 0 0 0 8-8v-35.286a8.009 8.009 0 0 0-8-8zm-220.1 0l2.145-199.074h191.567v199.074zM452.612 239.64H261.17L263.514 22h189.1zM251.513 22l-2.345 217.64H62.544V22zM62.544 251.64h186.5L246.9 450.714H62.544zM475 490H37v-27.286h438z"/><path d="M106.974 121.017a6 6 0 0 0 8.354-1.486l45.6-65.307a6 6 0 0 0-9.84-6.87l-45.6 65.308a6 6 0 0 0 1.486 8.355zM143.354 128.138a6 6 0 0 0 8.282-1.85l25.156-39.63a6 6 0 0 0-10.131-6.431l-25.156 39.629a6 6 0 0 0 1.849 8.282zM367.756 298.576a6 6 0 0 0-8.355 1.486l-45.594 65.307a6 6 0 1 0 9.839 6.869l45.595-65.307a6 6 0 0 0-1.485-8.355zM383.26 331.084a6 6 0 0 0-8.281 1.85l-25.157 39.629A6 6 0 1 0 359.953 379l25.156-39.63a6 6 0 0 0-1.849-8.286z"/></svg>